<svg width="33" height="50" viewBox="0 0 33 50" fill="none" xmlns="http://www.w3.org/2000/svg">
<path d="M8.72087 40.8134C7.87242 42.3052 7.90881 43.8948 8.83015 45.582C10.2122 48.1129 16.2025 50.2242 19.4742 48.2271C22.7458 46.23 24.6431 45.0719 27.8454 43.1171C31.0476 41.1624 31.6818 37.5749 30.6302 35.6491C29.1494 32.9374 27.6686 30.2255 26.1878 27.5137C25.6238 26.481 24.1872 26.2415 22.979 26.9791L22.9723 26.9831C21.7678 27.7184 21.2471 29.1492 21.8094 30.1789" stroke="white" stroke-width="2" stroke-linecap="round"/>
<path d="M10.1769 40.9058L2.65001 27.3337C2.04036 26.2344 2.60493 24.7069 3.91097 23.9219C3.9131 23.9206 3.91531 23.9193 3.91752 23.9179C5.2299 23.1332 6.78697 23.3909 7.39881 24.4942L13.1323 34.8326" stroke="white" stroke-width="2" stroke-linecap="round"/>
<path d="M12.4278 34.8104L11.0462 32.2771C10.4699 31.2206 11.0035 29.7524 12.2381 28.9979C13.4727 28.2434 14.9407 28.4883 15.517 29.5448L16.8987 32.0781" stroke="white" stroke-width="2" stroke-linecap="round" stroke-linejoin="round"/>
<path d="M16.4722 32.2524L15.5405 30.5444C14.9714 29.501 15.4984 28.0513 16.7177 27.3062C17.937 26.5612 19.3867 26.803 19.9559 27.8464L20.9864 29.7355" stroke="white" stroke-width="2" stroke-linecap="round" stroke-linejoin="round"/>
</svg>
