<svg width="36" height="32" viewBox="0 0 36 32" fill="none" xmlns="http://www.w3.org/2000/svg">
<g clip-path="url(#clip0_275_10354)">
<path d="M34.9999 2.5C33.9999 2.5 32.9999 2.8 32.0999 3.2C30.2999 4 28.4999 4.8 26.8999 5.8C26.1999 6.2 25.4999 6.6 24.7999 7C23.8999 7.6 22.9999 8.2 22.0999 8.8C20.3999 10 18.8999 11.4 17.4999 13C16.4999 14.1 15.5999 15.2 14.8999 16.5C14.5999 16.9 14.3999 17.3 14.1999 17.7H14.0999C13.7999 17.1 13.3999 16.6 13.0999 16C12.5999 15.1 12.2999 14.1 11.5999 13.4C10.6999 12.4 9.49993 11.9 8.19993 12.5C7.29993 12.9 6.69993 13.9 6.79993 14.9C6.89993 15.6 7.09993 16.2 7.49993 16.8C8.19993 18 8.79993 19.2 9.49993 20.3C9.89993 21 10.3999 21.6 10.8999 22.2C11.2999 22.7 11.7999 23.2 12.2999 23.7C12.8999 24.3 13.5999 24.9 14.3999 25.1C14.9999 25.3 15.4999 25.2 15.9999 24.9C16.3999 24.6 16.5999 24.3 16.7999 23.9C17.7999 22.2 18.6999 20.5 19.6999 18.9C20.6999 17.3 21.8999 15.8 23.0999 14.2C24.2999 12.6 25.5999 11.2 26.9999 9.8C28.0999 8.7 29.1999 7.6 30.3999 6.5C31.5999 5.4 32.9999 4.4 34.2999 3.3C34.6999 3 34.9999 2.8 35.3999 2.5C35.0999 2.5 34.9999 2.5 34.9999 2.5Z" fill="white"/>
<path d="M30.7 10.1001C30.5 9.6001 30.3 9.1001 30 8.6001C29.3 9.3001 28.7 9.9001 28.1 10.5001V10.7001C28.6 12.0001 29 13.3001 29.1 14.7001C29.2 16.0001 29.1 17.3001 28.9 18.6001C28.5 20.5001 27.7 22.3001 26.5 23.8001C26 24.4001 25.5 24.9001 25 25.4001C24.2 26.2001 23.2 26.9001 22.2 27.4001C21.3 27.9001 20.4 28.2001 19.4 28.5001C17.5 29.0001 15.6 29.1001 13.6 28.7001C12.1 28.4001 10.7 27.9001 9.3 27.1001C8.2 26.5001 7.2 25.7001 6.3 24.8001C5.4 23.8001 4.6 22.7001 4 21.5001C3.4 20.3001 3 19.0001 2.8 17.6001C2.6 16.2001 2.6 14.9001 2.9 13.5001C2.9 13.4001 2.9 13.3001 2.9 13.1001C2.9 13.0001 3 12.9001 3 12.8001C3.5 10.6001 4.5 8.6001 6 6.9001C7 6.0001 8.2 5.0001 9.6 4.3001C11.1 3.5001 12.8 2.9001 14.5 2.8001C16.2 2.6001 17.8 2.8001 19.4 3.2001C21.1 3.7001 22.6 4.4001 23.9 5.5001C24 5.6001 24.1 5.6001 24.3 5.5001C24.7 5.2001 25.1 5.0001 25.5 4.8001C25.8 4.6001 26.2 4.4001 26.6 4.2001C26.1 3.8001 25.6 3.4001 25.2 3.1001C23.8 2.1001 22.2 1.3001 20.6 0.800098C19.1 0.300098 17.6 0.100098 16.1 0.100098C14.3 0.100098 12.5 0.300098 10.8 0.900098C8.3 1.7001 6.2 3.0001 4.5 4.8001C3.2 6.2001 2.2 7.7001 1.4 9.3001C0.7 10.9001 0.2 12.6001 0.1 14.3001C0.1 14.6001 0.1 14.9001 0.1 15.1001C0.1 15.4001 0.1 15.6001 0.1 15.9001C0.1 15.9001 0.1 16.0001 0.2 16.0001C0 16.2001 0 16.3001 0 16.3001C0 16.5001 0 16.8001 0 17.0001C0.1 19.0001 0.6 20.9001 1.5 22.7001C2.3 24.3001 3.2 25.7001 4.5 26.9001C5.5 27.9001 6.6 28.8001 7.8 29.5001C9.1 30.3001 10.5 30.8001 12 31.2001C13.6 31.6001 15.3 31.7001 17 31.6001C18 31.5001 19.1 31.3001 20.1 31.1001C21.5 30.7001 22.9 30.1001 24.1 29.4001C25.1 28.8001 26 28.1001 26.9 27.3001C27.7 26.5001 28.4 25.6001 29.1 24.7001C29.8 23.7001 30.3 22.6001 30.8 21.5001C31.3 20.1001 31.7 18.6001 31.8 17.1001C31.9 15.9001 31.9 14.8001 31.7 13.6001C31.4 12.4001 31.1 11.3001 30.7 10.1001Z" fill="white"/>
</g>
<defs>
<clipPath id="clip0_275_10354">
<rect width="35.2" height="31.8" fill="white"/>
</clipPath>
</defs>
</svg>
