<svg width="20" height="20" viewBox="0 0 20 20" fill="none" xmlns="http://www.w3.org/2000/svg">
<path fill-rule="evenodd" clip-rule="evenodd" d="M19.8196 18.9802L14.9601 14.1199C16.2636 12.6211 17.0529 10.6655 17.0529 8.52798C17.0529 3.82283 13.2263 0 8.52655 0C3.82219 0 0 3.82731 0 8.52798C0 13.2286 3.82662 17.0557 8.52655 17.0557C10.6636 17.0557 12.619 16.2663 14.1176 14.9623L18.9771 19.8229C19.0924 19.938 19.2475 20 19.3984 20C19.5491 20 19.7043 19.9425 19.8196 19.8229C20.0502 19.5922 20.0502 19.2109 19.8196 18.9802ZM1.19295 8.52798C1.19295 4.48367 4.48279 1.1974 8.52195 1.1974C12.5659 1.1974 15.8513 4.48817 15.8513 8.52798C15.8513 12.568 12.5659 15.8628 8.52195 15.8628C4.48279 15.8628 1.19295 12.5723 1.19295 8.52798Z" fill="#AAAAAA"/>
</svg>
