<svg width="357" height="65" viewBox="0 0 357 65" fill="none" xmlns="http://www.w3.org/2000/svg">
<path d="M10.0466 24.0499C9.28019 23.0386 8.63029 21.9283 7.99497 20.8238C7.92503 20.7043 7.75601 20.7043 7.62487 20.7043C7.41795 20.7014 7.18771 20.7363 6.97205 20.7859C7.04491 20.1768 7.11777 19.5706 7.19354 18.9615C7.23143 18.6585 7.27224 18.3583 7.31304 18.0552C8.15527 17.5918 8.94211 17.0702 9.52206 16.2513C10.1311 15.3915 10.5683 14.2462 10.0816 13.3836C9.58036 12.5035 8.44378 11.906 7.35092 12.011C7.00121 12.043 6.35715 12.282 6.29012 12.7162C6.03949 14.3395 5.81509 15.9657 5.60235 17.5889C4.94663 17.9153 4.27926 18.2009 3.59732 18.4515C3.58857 18.4545 3.57982 18.4574 3.56816 18.4632C3.53028 18.4749 3.49239 18.4894 3.4545 18.5011C3.34667 18.539 3.23885 18.5739 3.13102 18.6089C2.9037 18.6847 2.67348 18.7575 2.44617 18.8304C1.90994 18.9994 1.37079 19.1655 0.834556 19.3346C0.481927 19.4453 -0.0513814 19.7338 0.00399017 20.1651C0.0564474 20.5702 0.639304 20.6373 0.986105 20.5294C2.47822 20.0602 3.97324 19.6173 5.42165 18.9907C5.27885 20.1302 5.14188 21.2697 5.00782 22.4091C4.62897 22.482 4.24428 22.5811 3.88291 22.7443C3.64394 22.8521 3.39913 22.9658 3.22136 23.1727C2.60062 23.8809 2.04108 24.6298 1.54856 25.4225C1.39993 25.6615 1.25713 25.9034 1.11433 26.1424C1.03565 26.2735 0.956968 26.4221 0.846225 26.5358C0.852053 26.53 0.860798 26.5241 0.866627 26.5154C0.796684 26.597 0.761704 26.6873 0.857875 26.7689C1.00068 26.8913 1.4145 26.8564 1.58353 26.8389C1.97405 26.7981 2.37039 26.7136 2.75216 26.5795C3.03777 26.4775 3.39331 26.3697 3.62937 26.1569C3.99657 25.8276 4.20349 25.3497 4.45412 24.9417C4.55612 24.7756 4.66394 24.6153 4.77177 24.4521C4.49491 26.8972 4.24136 29.3452 3.85667 31.7873C3.79547 32.1866 3.72846 32.5888 3.6352 32.988C3.6148 33.0696 3.58856 33.1512 3.56525 33.2328C3.48656 33.3203 3.42827 33.4164 3.40205 33.5272C3.2913 33.9672 3.78092 34.1217 4.12772 34.0984C4.69601 34.0605 5.14188 33.7079 5.33131 33.1775C5.42748 32.9093 5.47703 32.6296 5.52658 32.3585C5.72475 31.2948 5.85296 30.2253 5.98702 29.1616C6.23474 27.1624 6.46497 25.1632 6.69811 23.1639C6.83508 23.3796 6.96623 23.5982 7.10903 23.8109C7.51995 24.4288 7.94543 25.0728 8.50789 25.5624C8.6128 25.6528 8.95086 25.612 9.07035 25.6003C9.3676 25.5712 9.68817 25.4954 9.9796 25.3963C10.1166 25.3497 11.0025 25.0408 10.7548 24.8222C10.4809 24.592 10.2594 24.3238 10.0466 24.0499ZM3.54486 18.4661C3.5128 18.4778 3.4924 18.4836 3.54486 18.4661V18.4661ZM8.47875 14.4356C8.49041 14.4939 8.49332 14.5551 8.49332 14.6163C8.49041 14.6309 8.4904 14.6484 8.48749 14.6571C8.47 14.7416 8.44961 14.8291 8.4263 14.9136C8.30973 15.3332 8.11446 15.7209 7.84926 16.091C7.76183 16.2134 7.64525 16.3299 7.51702 16.4582C7.64234 15.5198 7.77641 14.5814 7.9163 13.6459C8.08533 13.7741 8.22228 13.9169 8.33594 14.1005C8.44377 14.2695 8.45253 14.2754 8.47875 14.4356Z" fill="white"/>
<path d="M24.3175 24.3175C23.7463 23.5889 23.1372 22.8924 22.6068 22.1318C22.5048 21.9861 22.1901 21.9628 22.0269 21.9599C21.7413 21.9569 21.3945 22.0269 21.1147 22.1405C20.9748 22.1988 20.7388 22.3096 20.5581 22.4524C20.6513 21.5577 20.7417 20.663 20.832 19.7683C21.0681 19.4157 21.3129 19.0689 21.5431 18.7163C21.8782 18.2033 21.5169 17.7196 21.0535 17.5826C21.1205 16.9094 21.1876 16.2362 21.2517 15.563C22.7817 14.1379 23.9241 12.3893 24.3117 10.2648C24.3641 9.97921 24.4137 9.64697 24.3146 9.38469C24.2068 9.09909 23.9707 9.01166 23.6618 8.99709C22.6214 8.95046 21.514 9.46046 20.7912 10.2998C20.2025 10.9846 19.8004 11.824 19.5293 12.6458C19.2 13.6483 19.1155 14.6392 19.0164 15.6504C19.0048 15.7582 18.996 15.8632 18.9844 15.971C18.894 16.0497 18.8095 16.1342 18.7192 16.21C18.2878 16.5742 17.7458 16.9735 17.3495 17.227C16.8336 17.5593 16.2974 17.8594 15.7553 18.1334C15.7262 18.148 15.6941 18.1625 15.6796 18.1713C15.6125 18.2033 15.5455 18.2354 15.4785 18.2675C15.3444 18.3316 15.2075 18.3928 15.0734 18.451C14.9364 18.5122 14.7994 18.5705 14.6625 18.6259C14.5809 18.6609 14.4964 18.6929 14.4148 18.7279C14.4002 18.7337 14.3332 18.76 14.2894 18.7775C14.033 18.8736 13.7736 18.9669 13.5142 19.0543C13.3744 19.1009 13.2345 19.1476 13.0946 19.1913C13.0246 19.2146 12.9518 19.235 12.8818 19.2554C12.8498 19.2641 12.8206 19.2729 12.8061 19.2758C12.5846 19.3399 11.687 19.5556 11.7074 19.8995C11.7249 20.22 12.7507 19.9752 12.8906 19.9344C14.8402 19.3749 16.9589 18.5385 18.8474 17.3757C18.7949 17.909 18.7396 18.4423 18.6871 18.9785C17.772 20.3512 16.8307 21.7092 15.8398 23.0381C15.7728 23.1285 15.7058 23.2188 15.6388 23.3063C15.6213 23.3296 15.5542 23.417 15.5251 23.4549C15.3881 23.6356 15.2482 23.8163 15.1113 23.9969C14.8257 24.3671 14.5372 24.7343 14.2457 25.1015C13.6396 25.8621 13.0217 26.6169 12.3922 27.36C12.2028 27.5844 12.0484 27.8496 12.0833 28.1294C12.1154 28.3888 12.3252 28.6103 12.5613 28.6977C13.1208 28.9046 14.0038 28.7472 14.4585 28.2081C15.7641 26.6635 17.0201 25.0811 18.2237 23.4607C18.0605 25.0199 17.8973 26.5819 17.7254 28.1411C17.2678 32.2823 16.7841 36.4293 16.1663 40.5734C15.9419 42.0743 15.7029 43.5781 15.3881 45.076C15.2803 45.5831 15.1637 46.0902 15.0209 46.5914C15.0151 46.6148 15.0064 46.6381 15.0005 46.6614C15.0005 46.6643 15.0005 46.6672 14.9976 46.6701V46.673C14.983 46.7168 14.9714 46.7605 14.9568 46.8013C14.9277 46.8916 14.8985 46.979 14.8636 47.0665C14.814 47.1947 14.7645 47.3258 14.6945 47.4453C14.6683 47.492 14.6362 47.5328 14.61 47.5794C14.2341 47.8971 14.9044 47.9291 15.0909 47.9116C15.5805 47.865 16.2129 47.728 16.6384 47.39C16.8569 47.2151 16.9706 46.9703 17.0668 46.7255C17.2212 46.3321 17.329 45.9241 17.431 45.5219C17.7458 44.2746 17.9615 43.0127 18.1684 41.7566C18.7891 37.9797 19.2437 34.1999 19.6809 30.4259C19.9607 27.9983 20.2229 25.5707 20.4765 23.1431C20.8641 23.6851 21.2808 24.2009 21.7005 24.7168C22.0123 25.0985 22.3562 25.4832 22.5835 25.932C22.6097 26.002 22.6302 26.0748 22.6331 26.1535C22.6302 26.1594 22.6301 26.1652 22.6272 26.171C22.5485 26.343 22.668 26.477 22.7963 26.5411C22.9915 26.6373 23.3063 26.6315 23.5277 26.5994C23.8279 26.5528 24.1485 26.4712 24.4253 26.3138C24.6177 26.2031 24.8304 26.0719 24.9266 25.865C25.0578 25.5823 24.9412 25.3259 24.8275 25.0985C24.7022 24.81 24.5099 24.5623 24.3175 24.3175ZM23.3471 9.58869C23.3587 9.57995 23.3675 9.5712 23.3791 9.56246C23.3937 9.55663 23.4083 9.54789 23.4199 9.54206C23.3995 9.55955 23.3762 9.57412 23.3471 9.58869Z" fill="white"/>
<path d="M76.8946 23.1668C76.4778 22.989 75.9911 22.989 75.5161 23.0502C74.8575 23.1318 74.1668 23.3212 73.5431 23.6331C73.7355 22.4411 73.9686 21.2346 74.3621 20.0689C74.4466 19.8212 74.5369 19.5735 74.6593 19.3345C74.7059 19.2471 74.7613 19.1655 74.8138 19.0809C74.9158 19.011 75.0382 18.9032 75.0265 18.8041C75.009 18.6671 74.7467 18.6438 74.6506 18.6409C74.1085 18.6234 73.4936 18.7924 72.9894 19.0693C72.5552 19.3083 72.3483 19.7308 72.1821 20.1592C71.9344 20.8004 71.7683 21.4677 71.6168 22.1235C71.2175 23.8429 70.9581 25.5827 70.7804 27.308C70.6871 28.2114 70.6201 29.1148 70.6143 30.0124C70.6143 30.1494 70.9174 30.1698 70.9902 30.1757C71.2554 30.1902 71.5701 30.1378 71.8353 30.0649C72.1122 29.9891 72.3978 29.8988 72.6513 29.7473C72.7737 29.6744 72.9632 29.5637 72.9632 29.4063C72.9661 28.8788 72.9952 28.3484 73.0331 27.818C73.2517 27.751 73.4703 27.681 73.6917 27.614C73.9657 27.5295 74.2396 27.4508 74.5165 27.3867C74.5777 27.3721 74.6389 27.3604 74.7001 27.3459C74.8458 27.3226 74.9915 27.3022 75.1372 27.2905C75.1955 27.2847 75.2596 27.273 75.3238 27.2614C75.3354 27.6927 75.35 28.124 75.3616 28.5553C74.4262 28.9691 73.514 29.4354 72.5902 29.8871C72.4415 29.96 72.1588 30.1115 72.0831 30.2835C72.0131 30.4379 72.1093 30.5399 72.2434 30.5837C72.4648 30.6565 72.733 30.639 72.969 30.5982C73.275 30.5458 73.581 30.4613 73.8695 30.3214C74.3504 30.0853 74.8283 29.8376 75.3092 29.6015C75.5686 29.4733 75.8308 29.348 76.0931 29.2256C76.233 29.1615 76.37 29.1003 76.5099 29.0391C76.5449 29.0245 76.5827 29.007 76.6177 28.9924C76.6206 28.9924 76.6235 28.9895 76.6294 28.9866C76.6731 28.9691 76.7139 28.9516 76.7576 28.9342C76.9558 28.8526 77.2006 28.7535 77.3783 28.6019C77.3871 28.599 77.3958 28.5961 77.4017 28.5903C77.5066 28.5349 77.7222 28.43 77.7193 28.293C77.6902 27.2847 77.6581 26.2792 77.629 25.2709C77.6056 24.5015 77.6843 23.5019 76.8946 23.1668ZM74.8371 19.0401C74.8458 19.0256 74.8458 19.0285 74.8371 19.0401V19.0401ZM73.5868 26.3608C73.4411 26.4046 73.2954 26.4512 73.1497 26.4978C73.1847 26.1772 73.2226 25.8538 73.2634 25.5332C73.4207 25.4662 73.6131 25.3846 73.7092 25.2476C74.0152 24.8134 74.3358 24.3325 74.7438 23.9653C74.8633 24.0265 74.974 24.1081 75.0498 24.2305C75.213 24.4957 75.2422 24.8367 75.2567 25.1572C75.2684 25.4312 75.2742 25.7051 75.283 25.9791C74.7118 26.0519 74.1435 26.1918 73.5868 26.3608Z" fill="white"/>
<path d="M80.3771 24.5338C80.8638 24.458 81.4758 24.2773 81.7789 23.8169C81.7963 23.7907 81.8109 23.7615 81.8284 23.7353C82.9067 23.3185 83.9879 22.8989 85.0662 22.4821C85.4946 22.316 85.9871 22.0712 86.4505 22.0363C86.4534 22.1179 86.4592 22.1995 86.4621 22.2781C86.5641 24.4405 86.3135 26.8769 84.6494 28.7158C83.883 29.561 82.8921 30.1992 81.8051 30.3857C81.5632 30.4265 82.0499 31.3766 82.0965 31.4494C82.2451 31.6855 82.5337 32.2304 82.895 32.1692C85.2673 31.7583 86.9051 29.4065 87.4093 27.2354C87.7298 25.8598 87.7182 24.4668 87.6249 23.1262C87.5637 22.2286 87.2519 21.4505 86.6953 20.7948C86.4738 20.5354 86.1853 20.2935 85.8239 20.2323C85.547 20.1857 85.2323 20.2527 84.9496 20.3343C84.3871 20.4975 83.8276 20.7307 83.271 20.958C83.8946 19.4484 84.2997 17.8688 84.4542 16.3242C84.4717 16.1581 84.1657 16.0824 84.0666 16.0649C83.8101 16.0212 83.4808 16.062 83.2185 16.1348C82.8455 16.2397 82.1548 16.4612 82.1053 16.9304C81.9362 18.6149 81.4291 20.346 80.6685 21.9751C80.5082 22.0363 80.3479 22.1004 80.1877 22.1616C80.0361 22.2199 80.1352 22.5288 80.2576 22.7998C80.0128 23.2573 79.7534 23.7091 79.4707 24.1433C79.3687 24.3007 79.5319 24.4435 79.6369 24.4901C79.8409 24.5804 80.1556 24.5688 80.3771 24.5338Z" fill="white"/>
<path d="M82.4463 27.6288C82.5483 27.7017 82.6678 27.7425 82.8018 27.7541C82.9505 27.7774 83.0991 27.7745 83.2506 27.7395C83.4109 27.725 83.5654 27.6783 83.7169 27.6026C83.9646 27.4773 84.2386 27.2995 84.3697 27.0459C84.4018 26.9702 84.4309 26.8944 84.463 26.8186C84.5009 26.6583 84.4834 26.5126 84.4076 26.3844C84.2124 26.0201 84.0171 25.6558 83.8218 25.2915C83.7635 25.1895 83.682 25.1138 83.577 25.0671C83.475 24.9943 83.3555 24.9535 83.2215 24.9418C83.0729 24.9185 82.9242 24.9214 82.7727 24.9564C82.6124 24.971 82.4579 25.0176 82.3064 25.0934C82.0587 25.2187 81.7847 25.3965 81.6536 25.65C81.6215 25.7258 81.5924 25.8015 81.5603 25.8773C81.5225 26.0376 81.5399 26.1833 81.6157 26.3115C81.811 26.6758 82.0062 27.0401 82.2015 27.4044C82.2598 27.5064 82.3414 27.5822 82.4463 27.6288Z" fill="white"/>
<path d="M32.6123 26.6755C32.7201 26.7338 32.86 26.7629 32.9824 26.7629C33.4108 26.7629 34.0257 26.6172 34.3376 26.2354C35.0108 25.4194 35.5936 24.5597 36.1357 23.6767C36.1619 23.6913 36.1911 23.7058 36.2202 23.7204C36.4767 23.8603 36.7331 23.9973 36.9808 24.1459C37.0857 24.21 37.1907 24.277 37.2897 24.347C37.3335 24.379 37.3742 24.4082 37.415 24.4431C37.4325 24.4577 37.4471 24.4723 37.4646 24.4869C37.4792 24.4985 37.4821 24.4985 37.4763 24.4927C37.6773 24.6879 38.0358 24.6792 38.3156 24.5481C38.5021 24.4606 38.9246 24.1517 38.7206 23.9244C38.3651 23.531 37.8551 23.292 37.3888 23.0414C37.1673 22.9219 36.9488 22.7995 36.7302 22.6713C36.8118 22.5285 36.8934 22.3856 36.975 22.2399C37.721 22.0709 38.4671 21.9019 39.2132 21.7358C39.3647 21.7008 40.067 21.5172 39.6474 21.3423C39.2394 21.1733 38.572 21.2228 38.1203 21.3248C37.8784 21.3802 37.6336 21.4356 37.3917 21.491C37.7473 20.8411 38.0999 20.1854 38.4613 19.5355C38.5429 19.3898 38.4147 19.2499 38.3127 19.1945C38.1465 19.1042 37.8755 19.1042 37.6832 19.1304C37.2606 19.1916 36.7185 19.3635 36.4883 19.7832C36.0832 20.5147 35.6927 21.2432 35.2964 21.966C34.5299 22.1408 33.7605 22.3128 32.9941 22.4877C32.8425 22.5226 32.1402 22.7062 32.5598 22.8811C32.9649 23.0501 33.6352 23.0006 34.0869 22.8986C34.3405 22.8403 34.5911 22.7849 34.8446 22.7266C34.8476 22.7383 34.8476 22.7499 34.8534 22.7616C34.1918 23.9186 33.4837 25.0435 32.6181 26.1072C32.4199 25.0435 32.3704 23.9302 32.2742 22.8432C32.2247 22.2749 32.1722 21.7037 32.0761 21.1471C32.0207 20.8294 31.9624 20.369 31.7176 20.1562C31.4437 19.9143 30.9628 19.9901 30.6073 20.1358C30.4324 20.2058 29.7913 20.5788 30.0652 20.8207C30.106 20.8586 30.1293 20.9023 30.1614 20.946C30.1701 20.9576 30.1701 20.9576 30.173 20.9635C30.1701 20.9606 30.1672 20.9606 30.1701 20.9635C30.1847 21.0014 30.1993 21.0392 30.2109 21.08C30.2692 21.2636 30.3071 21.4589 30.3391 21.6513C30.4353 22.2137 30.4849 22.7907 30.5373 23.3649C30.6422 24.5422 30.6801 25.7575 30.9337 26.897C31.0094 27.2379 31.5806 27.1797 31.8604 27.101C32.0236 27.0514 32.4491 26.897 32.6123 26.6755Z" fill="white"/>
<path d="M30.126 30.5284C30.021 30.4702 29.9045 30.441 29.7733 30.4381C29.4761 30.4235 29.1497 30.4702 28.8582 30.6042C28.6105 30.7179 28.3599 30.8665 28.1967 31.0967C28.051 31.3036 27.9344 31.5193 27.8208 31.7408C27.7333 31.9098 27.6313 32.0701 27.5089 32.2187C27.4448 32.2829 27.3924 32.3528 27.3574 32.4373C27.2991 32.5277 27.2758 32.6238 27.2904 32.7258C27.302 32.8278 27.3457 32.9065 27.4244 32.9619C27.4943 33.0435 27.5847 33.093 27.6954 33.1193C27.9606 33.1921 28.2667 33.1863 28.5523 33.1047C28.6543 33.0697 28.7592 33.0347 28.8612 32.9998C29.0419 32.924 29.208 32.822 29.3566 32.6909C29.4965 32.5451 29.6364 32.3936 29.75 32.2275C29.8112 32.1371 29.8666 32.0381 29.9191 31.9419C30.0415 31.7087 30.1609 31.4785 30.3154 31.2599C30.4378 31.0851 30.4728 30.8665 30.3678 30.7062C30.3037 30.6188 30.225 30.5605 30.126 30.5284Z" fill="white"/>
<path d="M43.9076 28.9163C43.5666 28.6861 43.1906 28.4791 42.9079 28.1819C42.8875 28.1586 42.8672 28.1323 42.8497 28.109C42.7302 27.9371 42.5553 27.8438 42.3368 27.8118C42.2114 27.7914 42.0832 27.7943 41.955 27.8263C41.8209 27.8409 41.6869 27.8788 41.5586 27.9429C41.3488 28.0478 41.1157 28.1994 41.002 28.4179C40.9087 28.5986 40.8563 28.823 40.97 28.9804C41.1302 29.2077 41.3226 29.4175 41.547 29.5837C41.7801 29.7585 42.0307 29.9101 42.2726 30.0703C42.3542 30.1374 42.4475 30.1811 42.5553 30.1986C42.6661 30.2365 42.7855 30.2481 42.9109 30.2365C43.0478 30.2306 43.1819 30.2015 43.3101 30.1461C43.4383 30.1082 43.5578 30.0499 43.6715 29.9683C43.8463 29.8343 44.0387 29.6507 44.0766 29.4321C44.1116 29.231 44.0678 29.0241 43.9076 28.9163Z" fill="white"/>
<path d="M32.8423 20.4161C34.1829 19.9469 35.506 19.3932 36.8524 18.9473C38.0094 18.5655 39.2567 18.2129 40.4282 18.2829C40.5536 18.2916 40.6789 18.3033 40.8013 18.3237C40.8479 18.3324 40.8974 18.3411 40.9441 18.3499C40.9411 18.3499 41.0111 18.3674 41.0519 18.379C41.0898 18.3936 41.1539 18.4169 41.151 18.414C41.1918 18.4315 41.2355 18.449 41.2734 18.4694C41.3346 18.4985 41.3899 18.5335 41.4511 18.5655C41.4541 18.5685 41.457 18.5685 41.4599 18.5685C41.4657 18.5743 41.4657 18.5772 41.4745 18.583C41.4832 18.5918 41.4949 18.6034 41.5065 18.6122C41.5153 18.7142 41.5269 18.8162 41.5327 18.9211C41.5357 18.9706 41.5357 19.0231 41.5386 19.0726C41.5386 19.0755 41.5386 19.0755 41.5386 19.0785C41.5386 19.0814 41.5386 19.0814 41.5386 19.0814C41.524 19.3262 41.5007 19.5651 41.4657 19.8099C41.4657 19.8099 41.4657 19.8099 41.4657 19.8129C41.4657 19.8158 41.4657 19.8158 41.4628 19.8187C41.4511 19.8595 41.4424 19.8974 41.4308 19.9382C41.3929 20.0722 41.3462 20.2092 41.3054 20.3433C41.2093 20.6434 41.1102 20.9436 41.0053 21.2409C40.7605 21.9403 40.4982 22.6339 40.1922 23.3188C40.1222 23.4732 40.0523 23.6306 39.9765 23.785C39.9445 23.8521 39.9095 23.922 39.8774 23.989C39.8599 24.0269 39.8512 24.0444 39.8454 24.0532C39.8425 24.059 39.8337 24.0736 39.8162 24.1085C39.6618 24.3941 39.4986 24.6768 39.315 24.9478C39.178 25.1518 39.1343 25.3966 39.143 25.6414C38.3387 25.723 37.5343 25.86 36.7387 26.0815C36.3278 26.1952 35.9169 26.3234 35.5089 26.4545C35.4477 26.4749 35.3865 26.4924 35.3282 26.5128C35.1679 26.5565 35.0076 26.6032 34.8474 26.644C34.4656 26.7401 34.0343 26.88 33.6787 27.0811C33.5767 27.1394 33.2037 27.3405 33.227 27.5241C33.2503 27.7135 33.635 27.7135 33.7574 27.7135C34.1567 27.7135 34.5618 27.6377 34.961 27.5386C35.4302 27.4192 35.8965 27.2822 36.3628 27.1365C36.5027 27.0928 36.6397 27.049 36.7766 27.0053C36.8058 26.9966 36.8349 26.9878 36.864 26.9791C36.9398 26.9587 37.0156 26.9383 37.0914 26.9179C37.1409 26.9092 37.1905 26.8975 37.24 26.8917C37.2546 26.8888 37.2691 26.8858 37.2866 26.8829C37.3449 26.8742 37.4061 26.8684 37.4644 26.8596C37.7121 26.8305 37.9598 26.8101 38.2075 26.7955C38.5864 26.7693 39.0031 26.6673 39.382 26.5449C39.4053 26.5944 39.4286 26.641 39.4549 26.6848C39.5831 26.9033 40.1747 27.7222 40.5302 27.1948C41.3229 26.0145 41.8533 24.671 42.3196 23.3712C42.5353 22.7738 42.7713 22.1589 42.9054 21.5469C43.0569 20.8562 43.0977 20.1626 43.0423 19.4865C42.9229 18.0147 42.305 16.4265 40.8479 15.931C39.6239 15.5143 38.1638 15.8203 36.8524 16.1846C35.1854 16.6479 33.568 17.359 31.9243 17.9361C31.7174 18.0089 31.6446 18.3499 31.6271 18.5073C31.5892 18.8249 31.665 19.195 31.7728 19.4719C31.9156 19.8362 32.2828 20.6143 32.8423 20.4161Z" fill="white"/>
<path d="M38.9887 29.482C38.9683 29.4471 38.945 29.4121 38.9275 29.3713C38.8605 29.2052 38.6623 29.1615 38.4903 29.1556C38.3592 29.1527 38.231 29.1673 38.0998 29.2052C37.9483 29.2314 37.8026 29.278 37.6569 29.3451C37.3975 29.4616 37.1119 29.6073 36.9137 29.8259C36.7971 29.9541 36.631 30.1494 36.698 30.3184C36.7534 30.4525 36.8438 30.572 36.9341 30.6827C37.0128 30.7789 37.1002 30.8663 37.1906 30.9508C37.3771 31.1257 37.5782 31.286 37.7734 31.455C37.8463 31.5104 37.9308 31.5395 38.027 31.5395C38.1406 31.5628 38.2572 31.5599 38.3796 31.5366C38.5282 31.5162 38.671 31.4783 38.8138 31.42C38.9654 31.3734 39.114 31.3064 39.2568 31.2219C39.3413 31.1665 39.4229 31.114 39.5074 31.0587C39.6415 30.9625 39.7581 30.8459 39.8513 30.7089C39.8775 30.6536 39.9009 30.5982 39.9271 30.5428C39.9533 30.4321 39.9242 30.3417 39.8455 30.2776C39.5511 30.0241 39.2277 29.7909 38.9887 29.482Z" fill="white"/>
<path d="M41.1537 32.5826C40.0404 32.6088 39.067 32.7691 37.9683 32.7079C36.9046 32.6496 35.838 32.5622 34.8151 32.3319C34.1827 32.1891 33.5299 32.0784 32.9645 31.6646C32.096 31.0234 31.6939 31.3644 31.5511 32.7428C31.4753 33.4743 32.2476 33.7745 32.9878 33.9494C35.0977 34.4477 36.5024 35.255 38.4608 35.3366C39.6091 35.2724 40.7107 35.3628 41.6316 34.8819C42.0862 34.6459 42.57 33.8852 42.5205 33.3024C42.4622 32.5767 41.6811 32.5709 41.1537 32.5826Z" fill="white"/>
<path d="M61.4202 15.1757C61.4289 15.1728 61.4376 15.1699 61.4464 15.167C61.3619 15.1932 61.3094 15.2078 61.2803 15.2194C61.3065 15.2107 61.3327 15.2049 61.3619 15.1961C61.3764 15.1874 61.3968 15.1816 61.4202 15.1757Z" fill="white"/>
<path d="M54.038 23.8809C54.0292 23.8809 54.0234 23.8838 54.0176 23.8838C54.0234 23.8809 54.0292 23.8809 54.038 23.8809Z" fill="white"/>
<path d="M59.0042 28.5177C59.182 28.4682 59.3568 28.4216 59.5346 28.3749C59.5608 28.3691 59.587 28.3604 59.6162 28.3545C59.9105 28.2788 60.2049 28.2001 60.4992 28.1301C60.5342 28.1214 60.5692 28.1156 60.6041 28.1068C60.9626 28.1768 61.4085 28.1097 61.7524 28.031C62.3469 27.897 62.9618 27.7075 63.5534 27.3578C63.9323 27.1334 64.3344 26.9003 64.6463 26.4369C65.0951 25.7725 64.2179 25.6151 64.0313 25.5918C63.5855 25.5335 63.0842 25.6209 62.6179 25.6996C62.0088 25.8016 61.391 25.9677 60.7761 26.1309C59.8785 26.367 58.9809 26.6147 58.0833 26.8595C58.1386 26.7458 58.1998 26.6351 58.2523 26.5214C58.4272 26.1484 58.7244 25.6238 58.7128 25.2246C58.7069 25.0759 58.363 25.0672 58.2873 25.0672C57.9813 25.0585 57.6286 25.1226 57.3256 25.2042C57.0079 25.2887 56.6844 25.3907 56.3901 25.5568C56.2647 25.6267 56.0229 25.755 56.0287 25.9182C56.0316 25.9648 56.0229 26.0143 56.0112 26.0639C56.0054 26.0959 55.9937 26.1309 55.985 26.163C55.9821 26.1746 55.9792 26.1834 55.9792 26.1921C55.9762 26.1979 55.9733 26.2067 55.9646 26.2242C55.8801 26.4398 55.7955 26.6555 55.6965 26.8682C55.5886 27.1043 55.4691 27.3374 55.3526 27.5706C54.9854 27.658 54.6153 27.7396 54.2481 27.8096C54.1927 27.8212 54.1344 27.83 54.079 27.8416C53.9712 27.8533 53.8634 27.8678 53.7555 27.8737C53.1843 27.9057 52.5461 28.0981 51.9603 28.3545C51.5523 28.5323 50.9316 28.8121 50.5498 29.2463C50.3633 29.4561 50.0835 29.7971 50.2875 30.0652C50.5236 30.3712 51.0132 30.3158 51.3396 30.2984C52.246 30.2459 53.1756 30.0623 54.1082 29.835C53.2106 31.3708 52.243 32.8717 51.2172 34.3346C50.4274 35.4567 49.6027 36.5583 48.7255 37.622C48.4224 37.9921 49.6289 37.8493 49.7192 37.8318C50.0631 37.7648 50.4187 37.6773 50.748 37.5287C50.9578 37.4355 51.1851 37.3335 51.3367 37.1499C52.8783 35.2789 54.2743 33.2942 55.5653 31.263C56.017 30.5519 56.4629 29.8292 56.8884 29.0977C57.5966 28.9024 58.3018 28.7101 59.0042 28.5177Z" fill="white"/>
<path d="M68.2104 35.5702C68.1288 35.5644 68.0443 35.5556 67.9627 35.5469C67.884 35.5294 67.8024 35.5119 67.7238 35.4915C67.4032 35.4099 67.0913 35.305 66.7883 35.1884C66.7241 35.1651 66.66 35.1389 66.5959 35.1126C66.5668 35.0981 66.526 35.0835 66.4997 35.0718C66.3132 34.9902 66.1267 34.9028 65.9431 34.8154C64.3665 34.0548 62.9006 33.1076 61.4755 32.1284C60.6712 31.5747 59.8843 31.0035 59.1062 30.4177C58.8905 30.2545 58.4709 30.2458 58.1969 30.272C57.8472 30.307 57.4101 30.4352 57.0953 30.6392C56.6087 30.9569 56.2123 31.4902 56.7165 31.869C58.2028 32.9881 59.7269 34.0664 61.324 35.0398C62.0759 35.4973 62.8452 35.9316 63.6467 36.3163C64.3636 36.6572 65.1096 36.9865 65.9023 37.1731C66.864 37.4004 67.8753 37.4149 68.8866 37.0157C69.3033 36.8496 70.1484 36.2463 69.7696 35.7684C69.4432 35.3574 68.7583 35.4099 68.2104 35.5702ZM66.593 35.1156C66.5814 35.1097 66.5668 35.1039 66.5551 35.101C66.4211 35.0456 66.5347 35.0893 66.593 35.1156ZM66.5988 35.1185C66.6105 35.1243 66.6163 35.1272 66.6192 35.1301C66.6163 35.1243 66.6076 35.1214 66.5988 35.1185ZM68.0822 35.611C68.0327 35.6256 68.0472 35.6197 68.091 35.6081C68.088 35.6081 68.0851 35.611 68.0822 35.611ZM68.2804 35.5673C68.3037 35.5644 68.3241 35.5614 68.3357 35.5644C68.3212 35.5614 68.3008 35.5644 68.2804 35.5673Z" fill="white"/>
<path d="M52.6333 18.3814C52.6479 18.4164 52.6654 18.4485 52.6916 18.4834C53.0617 18.9585 53.8661 18.7778 54.411 18.5883C54.4635 18.5709 54.513 18.5534 54.5655 18.5359C54.5771 18.533 54.583 18.5301 54.5976 18.5242C54.7345 18.4805 54.8744 18.4339 55.0114 18.3902C55.2708 18.3057 55.533 18.2241 55.7924 18.1454C56.2296 18.0142 56.6696 17.8889 57.1126 17.7723C57.1272 17.7694 57.1388 17.7665 57.1534 17.7607C57.1301 17.8161 57.1097 17.8714 57.1097 17.9355C57.1039 18.4951 57.0514 19.0546 56.9785 19.6142C54.8832 20.0717 53.0384 20.538 52.9189 20.9722C52.7645 21.5347 53.0297 21.762 53.0646 21.8203C53.1725 22.001 53.2861 22.1787 53.4289 22.3303C53.4872 22.3915 53.5717 22.5051 53.6737 22.4789C54.7199 22.2341 55.6846 22.0039 56.623 21.7707C56.5356 22.2516 56.4452 22.7354 56.3694 23.2162C56.3636 23.2599 56.3636 23.2978 56.3694 23.3357C55.7691 23.4902 55.1688 23.6388 54.5684 23.7699C54.4489 23.7962 54.3265 23.8224 54.207 23.8457C54.1633 23.8545 54.0963 23.8632 54.038 23.869C54.0759 23.8661 54.1284 23.8603 54.1954 23.8515C54.1371 23.8574 54.0817 23.8661 54.0234 23.872C54.0205 23.872 54.0205 23.872 54.0176 23.872C53.9302 23.8836 53.8835 23.8865 54.0176 23.872C53.5367 23.8078 52.8344 24.073 52.4789 24.6151C52.0738 25.2329 52.5022 25.603 52.8956 25.6992C53.3007 25.7983 53.799 25.6672 54.2274 25.5797C54.7462 25.4777 55.2649 25.3466 55.7837 25.2154C57.1097 24.8774 58.4386 24.5102 59.7646 24.1459C60.3737 23.9798 60.9857 23.8108 61.5948 23.6534C62.0028 23.5485 62.7955 23.1434 62.8013 22.476C62.81 21.8115 62.0086 21.8086 61.6152 21.9077C60.4465 22.2079 59.2779 22.5401 58.1093 22.8636C58.1938 22.3449 58.29 21.829 58.3832 21.3132C59.444 21.0305 60.5194 20.7216 61.6939 20.3486C61.8541 20.299 62.0465 20.2378 62.1601 19.3781C62.1893 19.1537 62.0465 19.008 61.9037 18.8565C61.8512 18.8011 61.7667 18.5301 61.4053 18.6233C60.6389 18.8215 59.6946 19.0255 58.7184 19.2324C58.7941 18.6466 58.8466 18.0609 58.8524 17.4751C58.8524 17.4255 58.8379 17.3847 58.8175 17.3498C58.9661 17.3177 59.1118 17.2827 59.2604 17.2507C60.4057 17.003 61.5598 16.7757 62.6701 16.3094C63.0636 16.1433 63.8446 15.5837 63.489 15.1291C63.1364 14.6744 62.2971 14.8027 61.7696 15.0242C61.6618 15.0679 61.554 15.1116 61.4461 15.1524C61.4782 15.1436 61.5044 15.1349 61.5423 15.1232C61.5015 15.1349 61.4607 15.1495 61.4199 15.1611C61.417 15.1611 61.417 15.1611 61.4141 15.164C61.3296 15.1961 61.178 15.2369 61.2771 15.2048C61.0644 15.269 60.8487 15.3272 60.633 15.3797C60.0706 15.5167 59.5052 15.6332 58.9398 15.7556C58.3599 15.881 57.7829 16.0238 57.2088 16.1753C57.6896 15.7819 58.1734 15.3884 58.6543 14.9921C59.7879 14.0537 60.9536 13.1095 61.9474 12.0195C62.3379 11.5911 62.9295 10.9937 63.0024 10.4138C63.0432 10.099 62.9995 9.89209 62.7401 9.71724C62.4691 9.53655 62.0203 9.49284 61.6822 9.53364C61.2509 9.5861 60.7846 9.70849 60.4028 9.96495C60.1493 10.134 59.7442 10.4196 59.7034 10.7372C59.6946 10.7955 59.6772 10.8509 59.6597 10.9063C59.6597 10.9092 59.6568 10.9121 59.6539 10.915C59.5373 11.0986 59.3974 11.2676 59.2546 11.4338C59.2225 11.4687 59.1905 11.5008 59.1584 11.5358C59.0477 11.6523 58.934 11.766 58.8175 11.8767C58.5668 12.1186 58.3104 12.3547 58.051 12.5878C57.7042 12.8967 57.3545 13.1998 56.9989 13.5C56.929 13.4038 56.8561 13.3076 56.7745 13.2144C56.3986 12.7772 55.9702 12.3838 55.5564 11.9816C55.4019 11.8301 55.026 11.8126 54.8132 11.8301C54.5276 11.8534 54.1692 11.9612 53.9185 12.1361C53.7233 12.2731 53.4843 12.4683 53.4347 12.7102C53.4289 12.7772 53.4231 12.8472 53.4173 12.9142C53.4406 13.0541 53.5105 13.1619 53.6242 13.2406C53.8369 13.4475 54.0497 13.6544 54.2595 13.8643C54.6005 14.2198 54.9152 14.6045 55.1396 15.0475C54.8977 15.2456 54.6558 15.4438 54.414 15.6449C53.834 16.1229 53.2511 16.6037 52.6916 17.1108C52.4672 17.3119 52.2486 17.6237 52.2865 17.9181C52.3098 18.1279 52.4585 18.2823 52.6333 18.3814ZM59.7325 10.7897C59.7355 10.7897 59.7034 10.8422 59.6772 10.883C59.7005 10.8334 59.7209 10.7839 59.7325 10.7897Z" fill="white"/>
<path d="M114.807 42.8735C114.239 42.652 113.498 42.5092 112.848 42.5762C112.452 42.617 111.703 42.7686 111.493 43.1591C111.49 43.1649 111.487 43.1736 111.484 43.1824C111.476 43.1766 111.467 43.1678 111.458 43.162C111.452 43.1241 111.429 43.1008 111.406 43.1212C111.391 43.1095 111.377 43.1008 111.362 43.0891C111.321 43.0542 111.275 43.2174 111.318 43.2552C111.333 43.2669 111.35 43.2786 111.365 43.2902C111.377 43.5583 111.648 43.8264 111.79 43.9896C112.14 44.3918 112.633 44.7736 113.108 45.03C113.766 45.3827 115.879 45.9626 116.41 44.8581C116.873 43.8935 115.463 43.1299 114.807 42.8735ZM114.201 43.9284C114.871 44.1995 115.565 44.4938 116.261 44.7153C115.32 44.622 114.442 44.4705 113.574 44.1528C112.912 43.911 112.184 43.6749 111.61 43.2786C112.537 43.1853 113.405 43.6079 114.201 43.9284ZM116.095 45.0359C115.78 45.3156 115.054 45.3244 114.699 45.2952C114.218 45.2574 113.551 45.0854 113.151 44.8668C112.743 44.6395 112.37 44.3277 112.05 44.0042C111.974 43.9284 111.616 43.6283 111.493 43.3922C112.131 43.8614 112.982 44.1324 113.74 44.3947C114.544 44.6745 115.366 44.8027 116.232 44.8872C116.197 44.9368 116.15 44.9863 116.095 45.0359ZM116.386 44.5754C115.588 44.3306 114.807 43.9867 114.037 43.6778C113.326 43.3951 112.537 43.0454 111.712 43.1008C112.015 42.8822 112.557 42.7773 112.825 42.7481C113.259 42.6986 113.714 42.786 114.122 42.8647C114.614 42.9609 116.538 43.7128 116.386 44.5754Z" fill="white"/>
<path d="M129.896 26.1656C129.459 25.3292 127.912 25.8684 127.183 26.2123C126.635 26.4716 126.128 26.8651 125.697 27.3022C125.54 27.4625 124.834 28.127 124.939 28.4067C124.916 28.3834 124.896 28.3601 124.881 28.331C124.878 28.3251 124.869 28.3251 124.863 28.3222C125.123 27.3722 125.292 26.2822 125.248 24.8804C125.248 24.8338 125.169 24.5628 125.094 24.3559H125.097C125.102 24.353 125.108 24.3442 125.111 24.3384C125.114 24.35 125.117 24.3588 125.12 24.3675C125.105 24.3996 125.111 24.4287 125.134 24.4229C125.137 24.4375 125.143 24.452 125.146 24.4695C125.158 24.5162 125.266 24.4083 125.254 24.3588C125.251 24.3413 125.245 24.3267 125.239 24.3092C125.359 24.0936 125.306 23.7584 125.289 23.5632C125.248 23.0852 125.108 22.5578 124.916 22.1352C124.651 21.5523 123.537 20.1185 122.669 20.7421C121.908 21.2871 122.474 22.5403 122.783 23.0474C123.051 23.4874 123.47 23.9391 123.925 24.1898C124.147 24.3092 124.549 24.4754 124.866 24.4316C125.132 25.6819 124.418 28.1007 124.024 29.2898C123.462 30.9917 122.719 32.7578 121.678 34.3839C120.783 35.7857 120.139 36.7212 117.517 38.9798C115.984 40.3 112.714 42.1039 107.966 43.2667C105.973 43.8525 100.952 45.0299 99.4304 45.3504C99.1565 45.4087 98.8796 45.4699 98.6028 45.534C98.6844 45.2484 98.7689 44.9628 98.8476 44.6801C100.104 40.1426 101.004 35.5584 101.744 30.9801C102.184 30.8431 102.627 30.709 103.07 30.5808C103.178 30.5487 103.289 30.5167 103.397 30.4875C103.4 30.4875 103.4 30.4875 103.4 30.4875C103.615 30.4263 103.834 30.3681 104.05 30.3069C104.055 30.3039 104.064 30.3039 104.07 30.301C104.222 30.371 104.376 30.4293 104.525 30.4788C104.842 30.5808 105.183 30.6828 105.533 30.6857C105.699 30.6857 105.935 30.7061 106.058 30.54C106.27 30.2544 106.468 29.9601 106.661 29.6628C106.929 29.6074 107.197 29.555 107.465 29.5113C107.797 29.4588 108.226 29.2723 108.5 29.045C108.689 28.8876 108.931 28.5962 108.893 28.3455C108.82 27.8589 108.31 27.7394 107.829 27.7452C108.109 27.2789 108.392 26.8126 108.701 26.3609C109.007 25.9121 109.324 25.4983 109.549 25.0232C111.082 24.6094 112.615 24.1985 114.156 23.8488C114.422 23.7876 114.687 23.7322 114.955 23.6798C115.223 23.8896 115.593 23.9654 115.952 23.7555C116.173 23.6244 116.36 23.4291 116.534 23.2251C116.91 22.788 116.954 22.0594 116.488 21.7068C116.161 21.4591 114.293 22.004 113.868 22.0827C112.277 22.38 111.493 22.7064 109.782 23.1202C109.776 23.1231 109.77 23.1231 109.762 23.126C109.75 23.0852 109.738 23.0474 109.721 23.0066C109.377 22.1906 109.383 21.4474 108.532 20.9899C107.829 20.6139 107.827 20.5877 106.637 20.6168C105.772 20.6372 104.385 20.9316 103.105 21.2551C103.202 20.4478 103.292 19.6405 103.382 18.8333C103.784 18.7109 104.187 18.5885 104.592 18.4865C104.86 18.4195 105.125 18.3583 105.393 18.3058C105.396 18.3058 105.396 18.3058 105.399 18.3058C105.451 18.2971 105.504 18.2883 105.559 18.2825C105.632 18.2737 105.705 18.2679 105.781 18.2592C105.956 18.4865 106.227 18.6409 106.314 18.6235C106.728 18.5389 107.034 18.5593 107.299 18.1921C107.678 17.6734 107.835 17.3412 107.943 17.0905C108.141 16.6243 108.197 16.1813 108.377 15.3274C108.506 14.73 108.479 14.1354 108.077 13.7974C107.879 13.6313 107.471 13.401 107.282 13.3836C106.664 13.3224 106.474 13.3748 106.087 13.4156C105.376 13.4885 104.624 13.7158 103.898 13.9956C103.921 13.7595 103.948 13.5205 103.971 13.2845C104.029 12.6958 104.073 12.282 104.108 11.9556C104.615 11.8011 105.122 11.6496 105.629 11.5038C105.958 11.4077 106.291 11.3173 106.62 11.2328C106.678 11.2182 106.739 11.2037 106.798 11.1891C106.949 11.2853 107.147 11.3406 107.252 11.3669C107.62 11.4572 106.92 12.2645 108.852 11.9789C109.514 11.8827 110.455 10.6878 110.519 9.87767C110.575 9.17824 109.537 9.06167 109.03 9.05001C108.234 9.03253 107.404 9.21321 106.608 9.40847C105.781 9.61247 105.043 9.83104 104.321 10.0613C104.353 9.74653 104.388 9.3531 104.434 8.80812C104.539 7.57247 104.597 6.06869 104.702 4.83303C104.816 3.48371 104.828 3.85966 105.189 2.51326C105.399 1.72931 105.504 1.74388 105.883 1.00657C106.072 0.639367 105.434 -0.118349 105.221 0.0157084C104.609 0.400395 104.391 0.66851 104.131 1.04737C103.644 1.74971 103.4 2.35006 103.19 3.15149C103.015 3.82177 102.954 4.5008 102.907 5.17109C102.823 6.45338 102.896 6.53498 102.788 7.82018C102.648 9.49007 102.674 9.8223 102.636 10.6033C102.257 10.7228 101.87 10.8452 101.456 10.9676C99.9637 11.4077 99.1419 11.6874 97.644 12.0692C97.1981 12.1829 95.5165 12.518 95.1348 12.8153C94.9395 12.9668 94.5956 13.4098 94.6597 13.6925C94.8317 14.4298 96.1693 14.2141 96.7318 14.0713C98.661 13.5817 100.579 13.0251 102.493 12.4481C102.42 13.2262 102.351 13.9635 102.281 14.6775C102.106 14.7445 101.928 14.8116 101.727 14.9019C101.704 14.9107 101.642 14.9369 101.587 14.9602C101.517 14.9864 101.427 15.0243 101.395 15.036C101.258 15.0884 101.121 15.138 100.981 15.1846C100.864 15.2254 100.051 15.5897 99.6985 15.8053C99.6927 15.8083 99.684 15.8141 99.6781 15.817C99.6752 15.7675 99.6752 15.7179 99.681 15.6684C99.7044 15.4644 99.3955 15.3595 99.2876 15.3332C99.0282 15.2749 98.6873 15.3187 98.4163 15.4032C98.1336 15.4935 97.8188 15.6159 97.5769 15.8374C97.405 15.9948 97.2913 16.1376 97.2622 16.3824C97.236 16.6097 97.3176 16.8545 97.3671 17.0585C97.4545 17.4111 97.5536 17.755 97.6527 18.1018C97.7547 18.4544 97.8567 18.8041 97.9441 19.1626C97.9995 19.3899 98.0782 19.6405 98.0636 19.8912C98.052 20.0981 98.3376 20.2001 98.4571 20.2263C98.7164 20.2846 99.0574 20.2409 99.3284 20.1564C99.547 20.0864 99.783 19.9961 99.99 19.8562C100.593 19.7221 101.196 19.5415 101.797 19.3462C101.709 20.1185 101.619 20.8937 101.523 21.6864C101.272 21.7563 101.039 21.8234 100.835 21.8816C99.3284 22.3217 97.8567 22.9279 96.3675 23.4524C95.8866 23.6215 96.8046 24.2655 96.8804 24.2976C97.3671 24.5016 98.0257 24.6065 98.8272 24.4171C99.3867 24.2859 100.334 23.9624 101.272 23.6448C101.194 24.2364 101.112 24.8484 101.022 25.4808C99.6577 25.7868 98.425 26.0083 96.8542 26.4308C95.3708 26.8301 94.3421 27.1594 92.8441 27.4392C92.7509 27.4567 91.4482 27.6782 91.3549 27.6927C90.8653 27.7656 90.434 28.6574 90.571 29.0275C90.7458 29.5025 91.4249 29.7998 91.9494 29.7211L93.2375 29.5783C94.5257 29.3859 95.263 28.771 96.5394 28.433C97.9092 28.0716 99.3313 27.7481 100.739 27.41C100.628 28.124 100.503 28.8643 100.366 29.6191C99.4333 29.9105 98.5037 30.2282 97.6061 30.6274C97.2068 30.8052 96.7784 30.9888 96.4316 31.2744C96.1344 31.5192 95.7234 32.035 96.0236 32.3731C96.4491 32.8481 97.2418 32.8656 97.8946 32.6033C98.1948 32.4838 98.5532 32.3119 98.7485 32.0321C99.1623 31.8573 99.582 31.7028 100.005 31.5571C99.2235 35.5351 98.2152 39.79 97.335 43.3017C97.1077 44.2109 96.8629 45.126 96.6094 46.0382C94.6714 46.5599 92.6547 47.2243 90.4573 48.1132C88.1084 49.0632 85.4389 51.0508 83.8827 52.9422C82.2944 54.8714 81.3502 56.4801 80.6216 58.4939C80.47 58.9135 79.7298 61.0672 80.0504 62.2213C80.3884 63.4394 81.0267 63.9261 81.4755 64.1855C82.0816 64.5352 82.4255 64.6518 82.9064 64.6518C82.9705 64.6518 83.0346 64.6489 83.1046 64.6459C83.3785 64.6314 84.0721 64.4653 84.1537 64.1447C84.279 63.6609 83.6699 63.5035 82.9618 63.3229C82.239 63.1363 81.3385 62.9061 81.0791 62.297C80.7819 61.5947 80.5633 61.1925 80.6099 60.2978C80.6187 60.1463 80.7498 59.4498 80.7906 59.3128C80.8722 59.0447 81.1083 58.3365 81.1636 58.2024C81.5571 57.2582 82.0554 56.1537 82.7723 55.0987C83.9847 53.3123 85.8003 51.8551 87.7995 50.7681C89.3266 49.9375 91.113 49.1681 93.7446 48.3638C94.004 48.2851 94.9308 47.9966 96.146 47.6236C95.2863 50.4621 94.2459 53.2773 92.8762 55.9672C92.0544 57.5846 91.1393 59.1001 89.9735 60.5222C89.7054 60.8515 89.4228 61.1721 89.1313 61.481C89.0643 61.5539 88.9943 61.6238 88.9244 61.6938C88.8982 61.7229 88.869 61.7491 88.8399 61.7783C88.837 61.7812 88.837 61.7812 88.8341 61.7841C88.8282 61.7899 88.8253 61.7929 88.8137 61.8016C88.6679 61.9415 88.5193 62.0814 88.3678 62.2154C88.225 62.3407 88.0822 62.4661 87.9335 62.5855C87.8694 62.638 87.7995 62.6905 87.7354 62.7458C87.7354 62.7458 87.7354 62.7458 87.7324 62.7487C87.6946 62.7779 87.6567 62.807 87.6188 62.8333C87.4702 62.944 87.1001 63.1072 86.7212 63.2383C86.5551 63.2966 86.0684 63.3462 85.9052 63.419C85.6983 63.5123 84.8939 63.5414 84.9143 64.0369C84.9289 64.3545 86.2491 64.1476 86.386 64.133C88.6155 63.9174 92.1855 59.9598 94.0186 56.8502C95.8517 53.7407 97.1281 50.3776 98.1569 47.0086C99.955 46.4666 101.925 45.8837 103.315 45.5136C114.914 42.4157 117.965 40.0348 119.944 37.5489C120.055 37.6713 120.142 37.8374 120.241 37.9539C120.416 38.1638 120.606 38.3503 120.842 38.4844C121.311 38.7496 121.821 38.9098 122.366 38.9652C123.022 39.0293 123.66 38.9739 124.327 38.8195C124.686 38.7379 125.26 38.6301 125.51 38.2658C126.169 37.307 124.412 36.7154 123.878 36.6338C123.298 36.5434 122.692 36.5959 122.098 36.7066C121.795 36.762 121.492 36.829 121.191 36.9077C120.862 36.9922 120.518 37.1496 120.189 37.24C120.504 36.829 120.795 36.4123 121.101 35.9897C121.868 34.9289 123.135 33.1279 123.701 31.5163C124.053 30.5138 124.473 29.6074 124.785 28.535C124.796 28.5437 124.814 28.5495 124.826 28.5583C124.779 28.6166 124.843 28.6195 124.901 28.5991C125.213 28.7331 125.758 28.6719 126.006 28.6952C126.632 28.7506 127.247 28.6661 127.877 28.4475C128.707 28.1503 130.438 27.2031 129.896 26.1656ZM124.986 24.1227C124.98 24.1286 124.974 24.1315 124.968 24.1373C124.386 23.7614 124.036 23.0794 123.689 22.4966C123.377 21.972 123.062 21.4212 122.71 20.9257C123.284 21.4328 123.785 21.9603 124.208 22.6131C124.528 23.1115 124.895 23.6331 125.085 24.2102C125.065 24.1985 125.044 24.1839 125.024 24.1723C125.006 24.146 124.995 24.1286 124.986 24.1227ZM124.004 21.191C124.301 21.4445 124.659 21.8875 124.817 22.2459C124.977 22.6131 125.076 23.0299 125.132 23.435C125.146 23.5311 125.239 23.9333 125.207 24.1752C125.009 23.5107 124.578 22.9046 124.208 22.345C123.814 21.7534 123.336 21.2725 122.809 20.8063C122.858 20.7859 122.908 20.7655 122.969 20.7509C123.304 20.6751 123.785 21.0044 124.004 21.191ZM124.03 24.0644C123.721 23.9012 123.465 23.6244 123.234 23.3708C122.957 23.0678 122.057 21.5902 122.561 20.984C122.966 21.5465 123.316 22.176 123.674 22.7734C123.995 23.3067 124.336 23.9158 124.866 24.2655C124.861 24.2801 124.858 24.2947 124.858 24.3122C124.566 24.3092 124.205 24.1548 124.03 24.0644ZM103.953 15.2312C104.466 15.0068 105.6 14.6513 105.792 14.6833C105.99 14.7154 106.066 14.7853 106.113 14.8174C106.553 15.138 106.34 15.7937 106.154 16.4144C106.168 16.3678 106.183 16.3212 106.197 16.2745C106.177 16.3387 106.162 16.3882 106.145 16.4407C105.274 16.5368 104.428 16.7991 103.586 17.108C103.65 16.5077 103.709 15.9073 103.773 15.307C103.834 15.2808 103.898 15.2545 103.953 15.2312ZM100.217 18.2971C100.211 18.2737 100.2 18.2446 100.197 18.2213C100.109 17.8628 100.007 17.5131 99.9055 17.1605C99.818 16.8603 99.8617 16.7175 99.8209 16.4552C100.185 16.4523 100.576 16.394 100.937 16.2804C101.296 16.1667 101.733 16.0297 102.179 15.884C102.117 16.5077 102.053 17.1197 101.992 17.72C101.406 17.9386 100.818 18.1426 100.217 18.2971ZM98.7747 32.0146C98.7834 32.0117 98.7922 32.0059 98.798 32.003C98.7922 32.0059 98.7834 32.0117 98.7747 32.0146ZM106.888 22.0973C106.894 22.1031 106.897 22.109 106.903 22.1148C106.894 22.109 106.888 22.1031 106.882 22.0973C106.882 22.0973 106.885 22.0973 106.888 22.0973ZM107.334 22.3479C107.439 22.3567 107.588 22.4266 107.334 22.3479V22.3479ZM102.881 23.1115C103.376 22.957 103.848 22.82 104.338 22.7064C105.005 22.5519 105.702 22.3771 106.372 22.3217C106.404 22.3188 106.442 22.313 106.477 22.313C106.492 22.3159 106.506 22.3159 106.521 22.3159C106.64 22.3159 106.76 22.3188 106.879 22.3217C106.926 22.3246 106.973 22.3275 107.022 22.3304C107.031 22.3537 107.045 22.3742 107.054 22.3975C107.22 22.8434 107.153 23.3475 106.987 23.8313C106.984 23.843 106.978 23.8546 106.973 23.8634C105.629 24.2364 104.286 24.6269 102.942 24.9999C102.834 25.0291 102.735 25.0553 102.63 25.0815C102.718 24.4258 102.799 23.7672 102.881 23.1115ZM102.356 26.9991C102.566 26.9438 102.779 26.8913 102.986 26.8359C103.968 26.562 104.787 26.3347 105.585 26.1132C105.084 26.9088 104.627 27.7277 104.125 28.5233C103.516 28.6923 102.913 28.8701 102.313 29.0421C102.225 29.0683 102.138 29.0916 102.053 29.1178C102.158 28.4096 102.257 27.7044 102.356 26.9991ZM123.074 38.8807C122.582 38.8807 122.08 38.8253 121.634 38.6505C121.159 38.4669 120.746 38.2454 120.416 37.8461C120.326 37.7383 120.247 37.6013 120.154 37.4877C120.3 37.5547 120.518 37.5139 120.676 37.4993C120.874 37.4789 121.072 37.4498 121.27 37.4235C121.398 37.444 121.524 37.4673 121.646 37.4993C122.156 37.6246 122.564 37.9627 123.048 38.1463C123.73 38.4028 124.549 38.2803 125.292 38.1376C125.292 38.1376 125.292 38.1376 125.295 38.1376C125.353 38.1259 125.414 38.1142 125.473 38.1026C125.473 38.1055 125.473 38.1055 125.473 38.1084C125.327 38.7466 123.549 38.8807 123.074 38.8807ZM120.314 37.3915C120.524 37.3711 120.737 37.3711 120.944 37.3857C120.705 37.4265 120.46 37.4469 120.314 37.3915ZM125.481 37.9947C125.438 38.0035 125.391 38.0122 125.347 38.021C125.341 38.021 125.338 38.0268 125.333 38.0297C125.333 38.0268 125.333 38.0268 125.336 38.0239C125.271 38.0355 125.204 38.0472 125.14 38.0618C125.012 38.0676 124.878 38.1084 124.75 38.123C124.511 38.1492 124.292 38.1288 124.059 38.1259C123.771 38.123 123.514 38.155 123.243 38.0589C122.995 37.9714 122.78 37.8199 122.547 37.7004C122.264 37.5576 121.964 37.444 121.652 37.3682C121.809 37.3449 121.97 37.3216 122.127 37.3012C122.418 37.2604 122.698 37.1962 122.987 37.2137C123.322 37.2341 123.642 37.3594 123.963 37.4265C124.249 37.4877 124.555 37.5226 124.826 37.6188C125.059 37.7033 125.251 37.8549 125.493 37.9248C125.487 37.9481 125.484 37.9714 125.481 37.9947ZM121.378 36.9514C121.94 36.8174 122.512 36.7037 123.074 36.6891C123.709 36.6746 125.321 36.8873 125.475 37.7587C125.327 37.6917 125.19 37.6013 125.038 37.543C124.802 37.4527 124.546 37.409 124.295 37.3565C123.808 37.2545 123.351 37.0826 122.835 37.1001C122.395 37.1146 121.937 37.1992 121.495 37.2808C121.457 37.2866 121.41 37.2982 121.358 37.307C121.04 37.2545 120.713 37.24 120.387 37.272C120.716 37.17 121.043 37.0301 121.378 36.9514ZM125.965 27.1769C126.44 26.7252 126.973 26.3551 127.577 26.1365C128.177 25.9208 129.203 25.609 129.637 26.1044C128.052 26.4221 126.286 26.9438 125.102 28.2464C125.164 27.9404 125.828 27.3051 125.965 27.1769ZM129.605 26.2123C129.252 27.343 127.151 27.3867 126.283 27.6898C126.052 27.7714 125.691 27.9055 125.394 28.092C126.53 26.9642 128.154 26.5008 129.605 26.2123ZM127.58 28.4446C127.023 28.602 126.498 28.6078 125.956 28.5524C125.749 28.532 125.373 28.5729 125.12 28.5C125.4 27.8996 126.56 27.7073 127.064 27.6024C127.515 27.5091 127.97 27.3838 128.413 27.2381C128.885 27.0807 129.515 26.7543 129.739 26.2589C129.748 26.2735 129.757 26.288 129.762 26.3055C130.202 27.3838 128.393 28.2173 127.58 28.4446Z" fill="white"/>
<path d="M119.651 31.1053C119.986 31.6678 120.408 32.169 120.912 32.5828C121.186 32.8073 121.487 33.1249 121.868 33.1686C121.868 33.2152 121.868 33.2648 121.868 33.3085C121.868 33.3697 122.026 33.2648 122.026 33.2007C122.026 33.1803 122.026 33.157 122.026 33.1366C122.075 33.0928 122.116 33.0287 122.058 33.0287C122.046 33.0287 122.037 33.0258 122.026 33.0258C122.029 32.1107 121.95 31.0966 121.437 30.3796C121.216 30.0707 120.828 29.8667 120.467 29.7472C120.012 29.5986 119.432 29.5316 119.315 29.0187C119.438 28.8263 119.674 28.7098 120.082 28.7914C120.851 28.9458 121.516 29.8376 121.769 30.5254C121.9 30.8809 121.927 31.2627 121.976 31.6444C122.029 32.035 122.174 32.5187 122.096 32.9297C122.081 33.0113 122.241 32.9092 122.25 32.851C122.343 32.3526 122.163 31.796 122.101 31.321C122.029 30.7439 121.906 30.2456 121.591 29.7764C121.224 29.2285 120.233 28.1735 119.391 28.7506C119.336 28.7884 119.289 28.8292 119.248 28.873C119.228 28.8788 119.208 28.8934 119.187 28.9108C119.173 28.9196 119.158 28.9312 119.149 28.9429C119.097 29.0128 119.074 29.0828 119.071 29.1586C118.84 29.8026 119.406 30.6915 119.651 31.1053ZM120.181 31.5454C119.933 31.2219 119.723 30.8722 119.54 30.505C119.42 30.2631 119.286 30.0154 119.231 29.7414C119.219 29.6773 119.211 29.6132 119.205 29.5462C119.429 29.8667 119.86 30.1582 120.009 30.2718C120.504 30.6507 120.939 31.012 121.195 31.6007C121.396 32.0583 121.591 32.5187 121.787 32.9792C121.51 32.8714 121.262 32.6236 121.058 32.4546C120.732 32.1865 120.437 31.8834 120.181 31.5454ZM121.055 30.2806C121.685 30.7789 121.833 31.7698 121.863 32.6586C121.562 31.8951 121.285 31.0878 120.676 30.5574C120.542 30.4408 119.857 30.0124 119.476 29.5928C119.916 29.9017 120.668 29.9716 121.055 30.2806Z" fill="white"/>
<path d="M115.832 39.8712C116.211 38.5044 116.222 37.0735 115.768 35.8349C115.537 35.2054 114.943 34.4564 114.197 35.1762C113.343 36.001 113.763 37.4873 114.005 38.3383C114.153 38.857 114.599 40.3171 115.345 40.3054C115.348 40.3462 115.447 40.32 115.497 40.2792C115.564 40.25 115.596 40.183 115.523 40.1859C115.514 39.2359 115.648 38.2887 115.581 37.3416C115.514 36.3828 115.094 35.7241 114.424 35.1296C114.596 35.0218 114.8 34.9839 115.109 35.1238C115.229 35.217 115.328 35.3307 115.398 35.4677C115.479 35.6046 115.532 35.762 115.587 35.9106C115.724 36.2837 115.826 36.6567 115.873 37.0618C115.983 38.0235 115.922 38.9444 115.651 39.9236C115.683 39.9819 115.817 39.9236 115.832 39.8712ZM114.209 38.3557C114.089 37.9623 113.993 37.5485 113.932 37.1347C113.891 36.8432 113.818 36.2458 113.923 35.8028C113.929 36.4819 114.168 37.0822 114.468 37.6039C114.899 38.3557 115.237 39.2708 115.328 40.1859C114.771 40.0723 114.331 38.7492 114.209 38.3557ZM115.412 37.633C115.433 38.1838 115.398 38.7317 115.371 39.2825C115.24 38.7288 115.036 38.178 114.788 37.735C114.619 37.4319 114.433 37.1434 114.296 36.817C114.13 36.4236 114.025 35.762 114.025 35.5435C114.051 35.4939 114.08 35.4473 114.118 35.4065C114.171 35.3511 114.226 35.2957 114.281 35.2462C114.995 35.8873 115.371 36.6043 115.412 37.633Z" fill="white"/>
<path d="M124.987 24.1229C125.075 24.0639 124.883 24.0787 124.987 24.1229V24.1229Z" fill="white"/>
<g clip-path="url(#clip0_442_9653)">
<path d="M153.4 32.1762L150.3 28.0762H151.2L152.8 30.2762C153.1 30.7762 153.5 31.2762 153.9 31.6762H154C154.4 31.1762 154.8 30.6762 155.1 30.1762L156.6 28.0762H157.5L154.4 32.1762L157.8 36.5762H156.9L155.1 34.2762C154.7 33.7762 154.3 33.1762 153.9 32.6762H153.8C153.4 33.1762 153 33.6762 152.6 34.2762L150.9 36.5762H150L153.4 32.1762Z" fill="white"/>
</g>
<g clip-path="url(#clip1_442_9653)">
<path d="M198.49 21.0306C198.483 21.4899 198.373 22.3425 197.703 22.8878C197.397 23.1374 196.991 23.3073 196.463 23.4038C195.71 23.5443 194.944 23.5087 194.201 23.4751L193.68 23.4457C193.119 23.409 192.54 23.3723 192.05 23.4814C191.965 23.4985 191.885 23.5309 191.813 23.5768C191.656 23.6975 191.543 23.8613 191.488 24.0456C191.234 24.6989 191.274 25.4424 191.314 26.1618C191.314 26.1618 191.38 36.1129 191.382 36.3478C191.39 37.7215 191.543 39.2222 190.921 40.5582C190.741 40.9369 190.457 41.2628 190.099 41.5021C189.743 41.7632 189.281 41.823 188.92 41.8471C188.671 41.8628 188.406 41.8754 188.136 41.8754C187.31 41.8754 186.421 41.7621 185.746 41.3081C184.671 40.5845 184.676 39.1866 184.681 38.2606C184.681 38.2606 184.896 24.8604 184.64 24.2532C184.463 23.8338 183.822 23.4279 183.281 23.2444C182.767 23.0703 180.319 23.2192 179.643 23.2276C179.262 23.2276 178.868 23.2192 178.544 23.0179C178.101 22.741 177.968 22.2314 177.892 21.7699C177.805 21.2351 177.737 20.6038 177.9 19.9872C178.077 19.3129 178.527 18.7759 179.091 18.5463C179.201 18.5045 179.314 18.4725 179.43 18.4508L179.896 18.3921C180.062 18.3816 180.228 18.3764 180.372 18.3753C180.372 18.3753 195.053 18.3323 195.26 18.3271C195.834 18.3166 196.477 18.3428 197.049 18.584C197.049 18.584 197.469 18.8053 197.481 18.8137C198.125 19.2699 198.502 20.0931 198.49 21.0306Z" fill="white"/>
<path d="M212.81 22.117C212.863 21.5257 213.13 20.9698 213.566 20.544L213.803 20.3342C214.587 19.6872 215.684 19.3831 216.633 19.5645C216.976 19.6232 217.299 19.7584 217.575 19.959C217.852 20.1597 218.074 20.4199 218.223 20.7181C218.223 20.7181 218.425 21.255 218.445 21.341C218.538 21.8199 218.486 22.3143 218.294 22.7662L218.121 23.1196C217.669 23.9008 216.869 24.5133 216.009 24.723C215.8 24.7747 215.584 24.8011 215.367 24.8017C214.887 24.802 214.419 24.6625 214.025 24.4021C213.744 24.217 213.499 23.9871 213.301 23.7226L213.131 23.4646C212.886 23.0552 212.775 22.5864 212.81 22.117ZM218.484 36.7347C218.466 38.1305 218.313 39.2002 218.02 39.9972C218.02 39.9972 217.783 40.5414 217.716 40.6495C217.4 41.1738 216.977 41.5052 216.459 41.6394C216.459 41.6394 215.985 41.7076 215.906 41.7076C215.463 41.6967 215.025 41.6052 214.618 41.4381C213.296 40.9305 213.09 39.6092 213.069 38.3832C213.051 37.5653 213.058 36.7357 213.069 35.9335C213.079 34.7034 213.09 33.4324 213.012 32.1823C213.002 32.0177 212.911 30.4572 212.911 30.4572C212.885 29.4767 212.96 28.2718 213.617 27.3185C213.628 27.3028 213.847 27.0469 213.847 27.0469C214.153 26.7237 214.534 26.4727 214.961 26.3139C215.387 26.1551 215.847 26.093 216.303 26.1324C216.703 26.1653 217.087 26.2937 217.419 26.5058C217.752 26.7179 218.022 27.0065 218.204 27.3447C218.801 28.4501 218.633 29.6969 218.47 30.9019C218.386 31.4263 218.337 31.9552 218.324 32.4854C218.325 32.7633 218.484 36.7347 218.484 36.7347Z" fill="white"/>
<path d="M237.731 35.9302C237.672 36.0889 237.607 36.2459 237.538 36.4011C236.865 37.9133 235.779 39.1424 234.401 39.9551C232.969 40.794 231.498 40.9377 230.122 40.9639C230.047 40.9639 229.265 40.9639 229.099 40.9639C228.399 40.9555 227.956 41.1737 227.71 41.6634C227.658 41.7646 227.615 41.8699 227.582 41.978C227.474 42.3959 227.411 42.8232 227.393 43.2532C227.353 43.7681 227.312 44.3019 227.119 44.8042C226.751 45.7606 225.815 46.3248 224.66 46.3248C224.478 46.3245 224.297 46.3112 224.118 46.285C223.595 46.2165 223.116 45.9724 222.767 45.597L222.532 45.3097C222.243 44.8839 222.056 44.326 221.971 43.6465C221.971 43.6465 221.929 43.1872 221.927 43.1284C221.877 42.043 221.927 40.9398 221.978 39.8722C222.004 39.2944 222.035 35.9816 222.019 35.172L222.012 34.871C221.983 33.4742 221.952 32.0302 221.998 30.6092C222.006 29.8198 222.146 29.0366 222.412 28.2884L222.582 27.8826C222.963 27.0655 223.605 26.3825 224.418 25.9299C224.443 25.9163 224.899 25.6887 224.899 25.6887C226.988 24.7292 229.436 24.8183 231.13 25.0669C234.103 25.5021 236.441 27.0038 237.535 29.1861C237.695 29.5059 237.829 29.8369 237.936 30.1761C238.516 32.0008 238.444 34.0426 237.731 35.9302ZM231.741 29.7157C231.145 29.2321 230.39 28.9603 229.606 28.947C229.222 28.9425 228.843 29.0252 228.5 29.1882C227.081 29.8772 227.198 31.5918 227.292 32.9698L227.326 33.4941C227.411 34.956 227.528 36.9548 229.377 37.0597C230.281 37.1079 231.369 36.6779 231.955 36.0351C232.564 35.3702 232.873 34.3394 232.873 32.9698C232.873 32.8282 232.744 31.5373 232.701 31.3433C232.68 31.252 232.525 30.2809 231.741 29.7157Z" fill="white"/>
<path d="M258.213 35.2174C258.213 35.2174 257.912 36.3867 257.746 36.782C256.83 38.9528 255.075 40.5573 252.931 41.196C251.787 41.534 250.596 41.7072 249.398 41.7098C248.585 41.7127 247.775 41.6208 246.986 41.4361L246.669 41.3543C245.44 41.0114 244.434 40.4336 243.674 39.6355L243.46 39.4048C242.243 37.9702 241.662 35.9326 241.699 33.1756C241.732 30.7175 241.706 28.0979 241.621 25.1636V24.7085C241.621 23.3557 241.842 22.3531 242.285 21.6673L242.517 21.3611C242.887 20.9392 243.408 20.662 243.98 20.5829C244.547 20.497 245.964 20.3931 246.868 21.295C247.643 22.0689 247.633 23.1826 247.624 24.1642C247.624 24.354 247.649 25.6985 247.616 26.077C248.069 25.9659 248.461 25.8778 248.833 25.8023C249.415 25.6836 250.009 25.6308 250.604 25.645C251.361 25.6649 253.149 26.1441 253.149 26.1441C253.774 26.3759 255.184 27.2579 255.184 27.2579C256.585 28.3113 257.588 29.7664 258.044 31.4054C258.189 31.9233 258.282 32.4527 258.324 32.9868C258.324 32.9868 258.418 34.2662 258.213 35.2174ZM251.934 36.2472C252.909 34.6113 252.831 31.8291 251.27 30.6892C250.767 30.3297 250.143 30.1554 249.515 30.1984C249.233 30.2178 248.956 30.2838 248.697 30.3934C248.523 30.476 248.354 30.5703 248.194 30.6755C247.812 30.9762 247.537 31.3807 247.406 31.8343C247.154 32.6156 247.256 34.6658 247.261 34.8105C247.295 35.7292 247.552 36.4003 248.028 36.803C248.479 37.1868 249.149 37.3494 250.02 37.2896C250.913 37.233 251.453 37.0537 251.933 36.2472H251.934Z" fill="white"/>
<path d="M275.32 37.002C275.32 39.1948 274.462 40.1386 273.959 40.4972C273.455 40.8559 272.078 41.2796 271.119 41.4117C269.911 41.594 268.691 41.6935 267.468 41.7095C266.229 41.7274 264.996 41.5546 263.816 41.1978C262.378 40.7416 261.218 39.9739 260.701 38.8623C260.458 38.338 260.134 37.3354 260.134 36.6339C260.134 35.775 260.262 35.0063 260.63 34.4002C260.812 34.0981 261.237 33.5255 261.515 33.2917C262.784 32.2367 264.456 32.0406 265.77 31.9892L266.102 31.9777C267.156 31.9462 268.598 31.9043 269.165 31.0265C269.349 30.7413 269.411 30.4938 269.349 30.2924C269.287 30.0911 269.115 29.9338 268.832 29.8017C268.46 29.6438 268.06 29.5531 267.653 29.5342C267.293 29.513 266.931 29.5323 266.576 29.5919C266.033 29.6907 265.498 29.8256 264.975 29.9957C264.343 30.1855 263.69 30.3816 262.999 30.4571C262.715 30.4969 262.425 30.4716 262.153 30.3832C261.882 30.2949 261.637 30.1462 261.438 29.9495C261.009 29.5143 260.831 28.8557 260.961 28.1888C261.293 26.5046 262.968 25.501 265.447 25.501C265.456 25.501 266.808 25.5303 267.428 25.5828C269.909 25.7925 271.724 26.4091 272.979 27.4704L273.226 27.6896C273.602 28.0403 273.922 28.4405 274.177 28.8778C274.636 29.7019 274.945 30.5935 275.092 31.5152C275.092 31.5152 275.277 35.0482 275.292 35.5002C275.321 35.9858 275.32 36.4944 275.32 37.002ZM265.266 36.4776C265.256 36.6794 265.299 36.8803 265.39 37.063C265.48 37.2457 265.617 37.4047 265.787 37.5263C266.099 37.756 266.605 37.8881 267.287 37.9175C267.388 37.9175 268.747 37.8954 269.206 37.542C269.422 37.384 269.599 37.1827 269.723 36.9525C269.848 36.7222 269.917 36.4688 269.927 36.2102C269.926 36.1365 269.918 36.0631 269.902 35.991C269.536 35.1605 268.709 35.1279 267.91 35.0965L267.42 35.1248C266.756 35.1835 266.217 35.3261 265.819 35.5495C265.643 35.6393 265.498 35.7744 265.4 35.9393C265.302 36.1041 265.256 36.2918 265.266 36.4808V36.4776Z" fill="white"/>
<path d="M292.63 36.993C292.63 39.1858 291.773 40.1296 291.269 40.4883C290.766 40.847 289.388 41.2706 288.43 41.4028C287.222 41.585 286.002 41.6846 284.778 41.7006C283.54 41.7185 282.307 41.5457 281.127 41.1888C279.688 40.7326 278.529 39.965 278.012 38.8534C277.769 38.329 277.444 37.3265 277.444 36.6249C277.444 35.7661 277.573 34.9974 277.94 34.3912C278.123 34.0892 278.548 33.5166 278.825 33.2828C280.106 32.232 281.777 32.0369 283.093 31.9855L283.425 31.974C284.479 31.9425 285.92 31.9006 286.488 31.0228C286.672 30.7376 286.734 30.4901 286.672 30.2887C286.61 30.0874 286.438 29.9301 286.155 29.798C285.783 29.6389 285.382 29.5472 284.974 29.5274C284.614 29.5061 284.253 29.5255 283.898 29.5851C283.355 29.6838 282.819 29.8187 282.296 29.9888C281.665 30.1786 281.012 30.3747 280.32 30.4502C280.036 30.49 279.746 30.4647 279.475 30.3764C279.203 30.2881 278.958 30.1394 278.76 29.9427C278.331 29.5075 278.153 28.8489 278.283 28.1819C278.615 26.4977 280.289 25.4941 282.769 25.4941C282.778 25.4941 284.13 25.5235 284.75 25.5759C287.23 25.7857 289.045 26.4023 290.301 27.4636L290.548 27.6828C290.924 28.0316 291.246 28.43 291.503 28.8657C291.962 29.6898 292.271 30.5815 292.418 31.5031C292.418 31.5031 292.603 35.0362 292.618 35.4881C292.631 35.981 292.63 36.4896 292.63 36.993ZM282.576 36.4687C282.567 36.6704 282.609 36.8714 282.7 37.0541C282.791 37.2368 282.927 37.3958 283.098 37.5174C283.41 37.747 283.915 37.8792 284.598 37.9085C284.699 37.9085 286.058 37.8865 286.517 37.5331C286.733 37.3751 286.91 37.1738 287.034 36.9435C287.159 36.7133 287.228 36.4598 287.237 36.2013C287.237 36.1276 287.229 36.0541 287.213 35.9821C286.846 35.1515 286.02 35.119 285.221 35.0875L284.731 35.1159C284.067 35.1746 283.528 35.3172 283.13 35.5406C282.953 35.6307 282.808 35.7665 282.71 35.9321C282.612 36.0978 282.565 36.2864 282.576 36.476V36.4687Z" fill="white"/>
<path d="M210.588 28.1842C210.608 27.8607 210.543 27.5376 210.397 27.2445C210.251 26.9513 210.03 26.6975 209.754 26.5063L209.482 26.3364C208.707 25.8645 206.852 25.4345 204.126 26.4161C204.041 26.4465 203.955 26.48 203.868 26.5147C203.673 26.0952 203.86 25.1126 202.788 24.6417C201.998 24.2946 200.962 24.3197 200.531 24.4603C200.054 24.6186 199.598 25.143 199.468 25.3527C199.349 25.5446 199.225 26.1581 199.227 26.3741C199.233 27.3872 199.24 27.8045 199.264 28.7022C199.264 28.7022 199.492 34.8203 199.53 35.5659C199.576 36.451 199.64 38.4529 199.64 38.4529C199.664 39.424 199.854 40.3794 200.936 40.8943C201.135 40.9845 201.344 41.0548 201.558 41.104L201.898 41.1743C202.052 41.1979 202.208 41.2105 202.364 41.212C202.965 41.2269 203.549 41.0214 203.995 40.6384C204.135 40.5131 204.26 40.3722 204.365 40.2189C204.912 39.4188 204.942 38.368 204.967 37.4409C204.967 37.4409 204.957 35.8071 204.917 35.1338C204.882 34.5151 204.86 33.1057 204.86 33.1057C204.884 31.7424 204.844 30.5626 206.428 30.1033C206.852 29.9806 207.324 29.9806 207.779 29.9795C208.624 29.9795 209.5 29.9795 210.15 29.2245C210.335 29.0104 210.466 28.7594 210.534 28.4904L210.588 28.1842Z" fill="white"/>
<path d="M323.771 40.0868C323.771 40.5706 323.655 40.9335 323.422 41.1753C323.189 41.4019 321.439 41.5151 318.171 41.5151C313.986 41.5151 311.015 41.2128 309.257 40.608C307.487 40.0033 305.901 38.9679 304.499 37.5018C304.234 39.7837 303.976 41.0838 303.725 41.4019C303.491 41.7039 303.149 41.8549 302.698 41.8549C301.686 41.8549 301.181 41.4847 301.181 40.7443C301.181 40.6227 301.196 40.4297 301.227 40.155C301.704 37.2169 302.023 34.258 302.184 31.2894C302.231 30.2616 302.682 29.7478 303.538 29.7478C304.423 29.7478 304.865 30.1634 304.865 30.9947C304.865 32.323 304.834 33.4871 304.772 34.4868L305.402 35.0541V29.5884H302.881C301.979 29.5884 301.528 29.1423 301.528 28.2503C301.528 27.3288 301.979 26.8677 302.881 26.867H305.051V25.3024H303.254C302.337 25.3024 301.878 24.848 301.878 23.9391C301.878 23.0023 302.337 22.5335 303.254 22.5328H305.051V21.0856C305.051 20.3599 305.502 19.9971 306.405 19.9971C307.29 19.9971 307.732 20.3599 307.732 21.0856V22.5359H309.097C309.23 22.5387 309.363 22.5538 309.493 22.581C309.337 22.3713 309.259 22.0766 309.259 21.697C309.258 20.8483 309.646 20.4239 310.425 20.4239H322.163C322.925 20.4239 323.306 20.8245 323.306 21.6257C323.306 22.5178 322.932 22.9638 322.186 22.9638H317.028V23.8741C317.199 23.6643 317.479 23.5595 317.868 23.5595H321.976C322.971 23.5595 323.469 24.0433 323.469 25.0109C323.469 26.6433 322.948 29.0315 321.906 32.1755C321.804 32.4351 321.718 32.7002 321.649 32.9694C321.649 33.1658 321.867 33.7174 322.302 34.6242C322.737 35.5163 323.056 36.121 323.259 36.4384C323.417 36.643 323.506 36.8878 323.516 37.141C323.516 37.9723 322.995 38.3879 321.952 38.3879C321.815 38.3941 321.677 38.3731 321.549 38.3263C321.42 38.2796 321.303 38.2081 321.205 38.1163C321.019 37.9499 320.646 37.2242 320.086 35.9392C319.261 37.5717 318.553 38.3879 317.962 38.3879C317.607 38.3832 317.266 38.2539 317.005 38.0251C316.849 38.3746 316.437 38.5494 315.768 38.5494C314.957 38.5494 314.551 38.2547 314.551 37.6654V36.0735C312.451 36.8145 310.988 37.1851 310.163 37.1851C309.199 37.1851 308.716 36.6712 308.716 35.6435C308.716 34.994 309.051 34.6095 309.72 34.49C310.187 34.3844 310.544 34.3012 310.793 34.2404V28.9529C310.591 29.3612 310.185 29.5653 309.576 29.5653H308.129V30.9936H309.225C310.11 30.9936 310.553 31.4397 310.553 32.3318C310.553 33.2539 310.11 33.715 309.225 33.715H308.129V36.9575C309.733 38.1698 312.287 38.7759 315.791 38.7759C317.596 38.7759 319.875 38.7459 322.628 38.6858H322.652C323.426 38.6823 323.799 39.1493 323.771 40.0868ZM310.751 27.5246V22.99H310.401C310.3 22.9932 310.198 22.9855 310.098 22.967C310.3 23.1935 310.401 23.5259 310.401 23.9643C310.401 24.8731 309.959 25.3276 309.074 25.3276H307.72V26.8901H309.539C310.145 26.8901 310.549 27.1016 310.751 27.5246ZM314.513 24.8263V22.99H313.253V24.8284L314.513 24.8263ZM314.513 29.2025V27.275H313.253V29.2025H314.513ZM314.513 33.4874V31.6732H313.253V33.8052C313.296 33.7905 313.714 33.6849 314.508 33.4885L314.513 33.4874ZM318.76 33.0113C317.889 29.882 317.453 27.7808 317.453 26.7076C317.453 26.4056 317.531 26.1787 317.687 26.027C317.428 25.9851 317.191 25.8661 317.009 25.6873V35.891C317.445 35.2408 317.732 34.8025 317.873 34.5759V34.5529C318.203 34.0573 318.497 33.5412 318.754 33.0082L318.76 33.0113ZM320.862 26.3679V26.3228C320.862 26.1564 320.752 26.0732 320.53 26.0732H319.597C319.669 26.2634 319.716 26.4614 319.737 26.6625C319.803 27.6143 319.975 28.5568 320.25 29.4741C320.281 29.293 320.359 28.9378 320.484 28.4086C320.7 27.49 320.824 26.8101 320.855 26.3689L320.862 26.3679Z" fill="white"/>
<path d="M334.02 38.6119C334.02 39.5941 333.522 40.0856 332.526 40.0863H328.35C327.262 40.0863 326.717 39.5421 326.717 38.4535V22.5135C326.712 22.3083 326.757 22.1049 326.851 21.9197C326.944 21.7346 327.082 21.5729 327.254 21.448C327.596 21.1914 327.931 21.0628 328.258 21.0621H332.481C332.761 21.0621 333.088 21.183 333.461 21.4249C333.816 21.6661 333.994 22.029 333.994 22.5135L334.02 38.6119ZM331.173 36.7526V24.2134C331.173 24.0036 331.057 23.8988 330.824 23.8988H329.984C329.734 23.8988 329.61 24.0347 329.61 24.3067V36.8658C329.61 37.0923 329.734 37.2056 329.984 37.2056H330.869C330.931 37.1901 330.988 37.1589 331.033 37.1154C331.126 37.0553 331.173 36.9343 331.173 36.7526ZM348.511 38.9066C348.511 39.8588 348.224 40.539 347.648 40.9473C347.072 41.3703 345.065 41.5818 341.628 41.5818C338.391 41.5818 336.455 41.3776 335.817 40.9693C335.179 40.5764 334.86 39.9189 334.86 38.9967V23.0346C334.86 21.4777 335.646 20.6992 337.217 20.6992H345.431C346.971 20.6992 347.741 21.4777 347.741 23.0346V30.925C347.741 32.4666 346.971 33.2373 345.431 33.2373H337.778V37.9365C337.778 38.4203 337.996 38.6849 338.432 38.7304C338.868 38.7758 339.934 38.7985 341.629 38.7985C343.277 38.7985 344.413 38.7608 345.036 38.6853H345.059C345.448 38.6398 345.642 38.3301 345.642 37.7561V34.7349C345.642 33.9945 346.116 33.6243 347.065 33.6243C348.014 33.6243 348.488 33.9945 348.489 34.7349L348.511 38.9066ZM339.88 30.4269V23.4646H338.27C337.944 23.4646 337.78 23.6006 337.78 23.8726V30.4258L339.88 30.4269ZM344.828 30.0409V23.8736C344.828 23.6016 344.68 23.4657 344.385 23.4657H342.705V30.4269H344.385C344.678 30.4269 344.824 30.2982 344.824 30.0409H344.828Z" fill="white"/>
<path d="M356.8 24.6675C356.8 25.0758 356.737 25.9148 356.613 27.1844L356.217 31.225C356.077 32.54 355.936 33.3713 355.796 33.7188C355.61 34.1271 355.244 34.3312 354.7 34.3312C354.14 34.3312 353.743 34.082 353.51 33.5835C353.324 33.1605 353.168 32.3743 353.043 31.225L352.601 26.7355C352.522 25.9343 352.484 25.2003 352.484 24.5333C352.484 23.8838 352.702 23.37 353.138 22.9917C353.57 22.6151 354.139 22.4117 354.725 22.4244C356.108 22.423 356.8 23.1707 356.8 24.6675ZM356.707 37.7269C356.709 37.9763 356.654 38.2231 356.545 38.4502C356.436 38.6773 356.277 38.8793 356.077 39.0419C355.891 39.2275 355.667 39.3743 355.417 39.4729C355.168 39.5715 354.9 39.6197 354.63 39.6145C354.354 39.6179 354.08 39.5695 353.823 39.4721C353.567 39.3748 353.333 39.2303 353.136 39.0472C352.949 38.8778 352.8 38.6736 352.7 38.4473C352.599 38.221 352.549 37.9775 352.553 37.7321C352.549 37.4791 352.603 37.2282 352.712 36.9971C352.821 36.766 352.981 36.5602 353.183 36.394C353.369 36.2092 353.594 36.0634 353.843 35.9657C354.092 35.868 354.36 35.8207 354.63 35.8266C354.903 35.8221 355.174 35.87 355.427 35.9675C355.679 36.065 355.909 36.2101 356.101 36.394C356.295 36.5629 356.45 36.7691 356.554 36.9988C356.659 37.2286 356.711 37.4767 356.707 37.7269Z" fill="white"/>
</g>
<defs>
<clipPath id="clip0_442_9653">
<rect width="7.8" height="8.5" fill="white" transform="translate(150 28.0762)"/>
</clipPath>
<clipPath id="clip1_442_9653">
<rect width="179" height="28" fill="white" transform="translate(177.8 18.3262)"/>
</clipPath>
</defs>
</svg>
