<svg width="80" height="80" viewBox="0 0 80 80" fill="none" xmlns="http://www.w3.org/2000/svg">
<path d="M73.8281 32.1875H53.8281C53.4844 32.1875 53.2031 32.4687 53.2031 32.8125V36.5625C53.2031 36.9063 53.4844 37.1875 53.8281 37.1875H73.8281C74.1719 37.1875 74.4531 36.9063 74.4531 36.5625V32.8125C74.4531 32.4687 74.1719 32.1875 73.8281 32.1875ZM63.3594 42.8125H53.8281C53.4844 42.8125 53.2031 43.0937 53.2031 43.4375V47.1875C53.2031 47.5313 53.4844 47.8125 53.8281 47.8125H63.3594C63.7031 47.8125 63.9844 47.5313 63.9844 47.1875V43.4375C63.9844 43.0937 63.7031 42.8125 63.3594 42.8125ZM37.2891 25.1953H33.9063C33.4219 25.1953 33.0312 25.5859 33.0312 26.0703V45.4453C33.0312 45.7266 33.1641 45.9844 33.3906 46.1484L45.0234 54.6328C45.4141 54.9141 45.9609 54.8359 46.2422 54.4453L48.25 51.7031V51.6953C48.5313 51.3047 48.4453 50.7578 48.0547 50.4766L38.1563 43.3203V26.0703C38.1641 25.5859 37.7656 25.1953 37.2891 25.1953V25.1953Z" fill="#EE8B93"/>
<path d="M62.8751 52.6489H58.3594C57.9219 52.6489 57.5079 52.8754 57.2735 53.2504C56.2813 54.8207 55.1251 56.2739 53.7969 57.602C51.5079 59.8911 48.8438 61.6879 45.8829 62.9379C42.8126 64.2348 39.5547 64.8911 36.1954 64.8911C32.8282 64.8911 29.5704 64.2348 26.5079 62.9379C23.5469 61.6879 20.8829 59.8911 18.5938 57.602C16.3047 55.3129 14.5079 52.6489 13.2579 49.6879C11.961 46.6254 11.3047 43.3676 11.3047 40.0004C11.3047 36.6332 11.961 33.3832 13.2579 30.3129C14.5079 27.352 16.3047 24.6879 18.5938 22.3989C20.8829 20.1098 23.5469 18.3129 26.5079 17.0629C29.5704 15.7661 32.836 15.1098 36.1954 15.1098C39.5626 15.1098 42.8204 15.7661 45.8829 17.0629C48.8438 18.3129 51.5079 20.1098 53.7969 22.3989C55.1251 23.727 56.2813 25.1801 57.2735 26.7504C57.5079 27.1254 57.9219 27.352 58.3594 27.352H62.8751C63.4141 27.352 63.7579 26.7895 63.5157 26.3129C58.4219 16.1801 48.0938 9.59418 36.5626 9.46137C19.6797 9.25043 5.6563 23.0707 5.62505 39.9379C5.5938 56.8364 19.2891 70.5473 36.1876 70.5473C47.8672 70.5473 58.3672 63.9379 63.5157 53.6879C63.7579 53.2114 63.4063 52.6489 62.8751 52.6489V52.6489Z" fill="#EE8B93"/>
</svg>
