<svg width="80" height="80" viewBox="0 0 80 80" fill="none" xmlns="http://www.w3.org/2000/svg">
<path d="M49.167 50C52.387 50 55.0003 52.6133 55.0003 55.8333L54.997 59.04C55.387 66.34 49.9603 70.03 40.2237 70.03C30.5237 70.03 25.0003 66.3967 25.0003 59.1667V55.8333C25.0003 52.6133 27.6137 50 30.8337 50H49.167V50ZM12.5003 33.3333H27.087C26.5054 35.5966 26.5278 37.9729 27.1519 40.2249C27.776 42.4768 28.98 44.5256 30.6437 46.1667L31.1837 46.67L30.8337 46.6667C28.8331 46.6659 26.8872 47.3197 25.2929 48.5282C23.6986 49.7367 22.5434 51.4336 22.0037 53.36L21.8903 53.3633C12.1903 53.3633 6.66699 49.73 6.66699 42.5V39.1667C6.66699 35.9467 9.28033 33.3333 12.5003 33.3333ZM67.5003 33.3333C70.7203 33.3333 73.3337 35.9467 73.3337 39.1667L73.3303 42.3733C73.7203 49.6733 68.2937 53.3633 58.557 53.3633L57.9937 53.3567C57.4812 51.541 56.4221 49.9271 54.9604 48.7344C53.4987 47.5416 51.7052 46.8278 49.8237 46.69L49.167 46.6667L48.817 46.67C50.6674 45.0447 52.0301 42.9376 52.7535 40.5835C53.4768 38.2293 53.5322 35.7205 52.9137 33.3367L67.5003 33.3333ZM40.0003 26.6667C41.3135 26.6667 42.6139 26.9253 43.8272 27.4279C45.0404 27.9304 46.1428 28.667 47.0714 29.5956C48 30.5242 48.7366 31.6266 49.2391 32.8398C49.7417 34.0531 50.0003 35.3534 50.0003 36.6667C50.0003 37.9799 49.7417 39.2802 49.2391 40.4935C48.7366 41.7068 48 42.8091 47.0714 43.7377C46.1428 44.6663 45.0404 45.4029 43.8272 45.9055C42.6139 46.408 41.3135 46.6667 40.0003 46.6667C37.3482 46.6667 34.8046 45.6131 32.9293 43.7377C31.0539 41.8624 30.0003 39.3188 30.0003 36.6667C30.0003 34.0145 31.0539 31.471 32.9293 29.5956C34.8046 27.7202 37.3482 26.6667 40.0003 26.6667V26.6667ZM21.667 10C24.3192 10 26.8627 11.0536 28.7381 12.9289C30.6134 14.8043 31.667 17.3478 31.667 20C31.667 22.6522 30.6134 25.1957 28.7381 27.0711C26.8627 28.9464 24.3192 30 21.667 30C19.0148 30 16.4713 28.9464 14.5959 27.0711C12.7206 25.1957 11.667 22.6522 11.667 20C11.667 17.3478 12.7206 14.8043 14.5959 12.9289C16.4713 11.0536 19.0148 10 21.667 10V10ZM58.3337 10C60.9858 10 63.5294 11.0536 65.4047 12.9289C67.2801 14.8043 68.3337 17.3478 68.3337 20C68.3337 22.6522 67.2801 25.1957 65.4047 27.0711C63.5294 28.9464 60.9858 30 58.3337 30C55.6815 30 53.138 28.9464 51.2626 27.0711C49.3872 25.1957 48.3337 22.6522 48.3337 20C48.3337 17.3478 49.3872 14.8043 51.2626 12.9289C53.138 11.0536 55.6815 10 58.3337 10Z" fill="#EE8B93"/>
</svg>
