<svg width="80" height="80" viewBox="0 0 80 80" fill="none" xmlns="http://www.w3.org/2000/svg">
<path d="M67.7781 12.9164H58.7503V8.74976C58.7507 8.19723 58.5316 7.66718 58.1411 7.27622C57.7507 6.88525 57.2209 6.66541 56.6684 6.66504C56.1158 6.66467 55.5858 6.88381 55.1948 7.27425C54.8039 7.66469 54.584 8.19445 54.5837 8.74698V12.9164H42.0837V8.74976C42.0838 8.47617 42.0301 8.20523 41.9256 7.9524C41.8211 7.69957 41.6678 7.4698 41.4744 7.27622C41.2811 7.08263 41.0516 6.92902 40.7989 6.82416C40.5462 6.71929 40.2753 6.66522 40.0017 6.66504C39.4492 6.66467 38.9191 6.88381 38.5282 7.27425C38.1372 7.66469 37.9174 8.19445 37.917 8.74698V12.9164H25.417V8.74976C25.4172 8.47617 25.3635 8.20523 25.2589 7.9524C25.1544 7.69957 25.0011 7.4698 24.8078 7.27622C24.6145 7.08263 24.3849 6.92902 24.1322 6.82416C23.8795 6.71929 23.6086 6.66522 23.335 6.66504C22.7825 6.66467 22.2525 6.88381 21.8615 7.27425C21.4705 7.66469 21.2507 8.19445 21.2503 8.74698V12.9164H12.2225C10.7496 12.9164 9.33695 13.5014 8.29516 14.5426C7.25337 15.5839 6.66773 16.9963 6.66699 18.4692V67.7748C6.66699 69.2482 7.25231 70.6613 8.29418 71.7031C9.33605 72.745 10.7491 73.3303 12.2225 73.3303H67.7781C69.2515 73.3303 70.6646 72.745 71.7065 71.7031C72.7483 70.6613 73.3337 69.2482 73.3337 67.7748V18.4692C73.3329 16.9963 72.7473 15.5839 71.7055 14.5426C70.6637 13.5014 69.2511 12.9164 67.7781 12.9164V12.9164ZM69.167 67.7775C69.167 68.1454 69.021 68.4983 68.7612 68.7586C68.5013 69.019 68.1488 69.1657 67.7809 69.1664H12.2225C11.8542 69.1664 11.5009 69.0201 11.2405 68.7596C10.98 68.4992 10.8337 68.1459 10.8337 67.7775V18.472C10.8344 18.1041 10.981 17.7516 11.2414 17.4917C11.5018 17.2318 11.8547 17.0859 12.2225 17.0859H21.2503V21.2525C21.25 21.8051 21.4691 22.3351 21.8595 22.7261C22.25 23.117 22.7797 23.3369 23.3323 23.3373C23.8848 23.3376 24.4149 23.1185 24.8058 22.728C25.1968 22.3376 25.4166 21.8079 25.417 21.2553V17.0859H37.917V21.2525C37.9166 21.8051 38.1358 22.3351 38.5262 22.7261C38.9166 23.117 39.4464 23.3369 39.9989 23.3373C40.5515 23.3376 41.0815 23.1185 41.4725 22.728C41.8634 22.3376 42.0833 21.8079 42.0837 21.2553V17.0859H54.5837V21.2525C54.5833 21.8051 54.8024 22.3351 55.1929 22.7261C55.5833 23.117 56.1131 23.3369 56.6656 23.3373C57.2181 23.3376 57.7482 23.1185 58.1391 22.728C58.5301 22.3376 58.75 21.8079 58.7503 21.2553V17.0859H67.7781C68.1455 17.0866 68.4976 17.2329 68.7574 17.4927C69.0172 17.7525 69.1635 18.1046 69.1642 18.472L69.167 67.7775Z" fill="#EE8B93"/>
<path d="M21.25 31.667H29.5833V37.917H21.25V31.667ZM21.25 42.0837H29.5833V48.3337H21.25V42.0837ZM21.25 52.5003H29.5833V58.7503H21.25V52.5003ZM35.8333 52.5003H44.1667V58.7503H35.8333V52.5003ZM35.8333 42.0837H44.1667V48.3337H35.8333V42.0837ZM35.8333 31.667H44.1667V37.917H35.8333V31.667ZM50.4167 52.5003H58.75V58.7503H50.4167V52.5003ZM50.4167 42.0837H58.75V48.3337H50.4167V42.0837ZM50.4167 31.667H58.75V37.917H50.4167V31.667Z" fill="#EE8B93"/>
</svg>
